<svg width="109" height="23" viewBox="0 0 109 23" fill="none" xmlns="http://www.w3.org/2000/svg">
<path d="M7.66903 19.1926C9.19097 19.9914 9.95193 20.3907 10.7705 20.3907V11.7217L2.65466 7.4502C2.64271 7.46941 2.63098 7.48879 2.61945 7.50837C2.10156 8.38784 2.10156 9.48223 2.10156 11.671V11.7724C2.10156 13.9612 2.10156 15.0556 2.61945 15.9351C3.13732 16.8146 4.06997 17.304 5.93524 18.2828L7.66903 19.1926Z" fill="#009A49"/>
<path opacity="0.7" d="M15.6074 5.16159L13.8737 4.25174C12.3517 3.45306 11.5908 3.05371 10.7722 3.05371C9.95354 3.05371 9.19258 3.45306 7.67062 4.25174L5.93683 5.16159C4.11308 6.11865 3.18091 6.60784 2.65625 7.45117L10.7722 11.7227L18.8881 7.45117C18.3633 6.60784 17.4311 6.11865 15.6074 5.16159Z" fill="#009A49"/>
<path opacity="0.5" d="M18.9245 7.50837C18.913 7.48879 18.9013 7.46941 18.8893 7.4502L10.7734 11.7217V20.3907C11.592 20.3907 12.353 19.9914 13.8749 19.1926L15.6087 18.2828C17.474 17.304 18.4066 16.8146 18.9245 15.9351C19.4424 15.0556 19.4424 13.9612 19.4424 11.7724V11.671C19.4424 9.48223 19.4424 8.38784 18.9245 7.50837Z" fill="#009A49"/>
<path d="M35.7368 8.53818L33.8108 9.14451C33.7276 8.65707 33.4839 8.21124 33.0796 7.80701C32.6754 7.40279 32.0929 7.20068 31.332 7.20068C30.7019 7.20068 30.1788 7.37901 29.7626 7.73568C29.3584 8.09235 29.1563 8.52035 29.1563 9.01968C29.1563 9.88757 29.6497 10.4285 30.6365 10.6425L32.4555 11.017C33.5493 11.231 34.3934 11.665 34.9878 12.3188C35.5823 12.9727 35.8795 13.7515 35.8795 14.655C35.8795 15.7012 35.4753 16.6048 34.6668 17.3657C33.8703 18.1147 32.7824 18.4892 31.4033 18.4892C29.9172 18.4892 28.758 18.1028 27.9258 17.33C27.0936 16.5453 26.624 15.6358 26.517 14.6015L28.5143 14.0308C28.5856 14.7442 28.871 15.3446 29.3703 15.832C29.8696 16.3195 30.5473 16.5632 31.4033 16.5632C32.1404 16.5632 32.7051 16.4027 33.0975 16.0817C33.5017 15.7488 33.7038 15.3267 33.7038 14.8155C33.7038 14.3994 33.5552 14.0427 33.258 13.7455C32.9608 13.4364 32.5446 13.2224 32.0096 13.1035L30.2263 12.729C29.2395 12.5269 28.4549 12.1167 27.8723 11.4985C27.3016 10.8803 27.0163 10.1075 27.0163 9.18018C27.0163 8.12207 27.4384 7.21257 28.2825 6.45168C29.1266 5.69079 30.1371 5.31035 31.3141 5.31035C32.6576 5.31035 33.686 5.63729 34.3993 6.29118C35.1126 6.93318 35.5585 7.68218 35.7368 8.53818ZM39.9054 13.1213V18.2217H37.8367V5.31035H39.9054V10.375C40.4641 9.64979 41.2904 9.28718 42.3842 9.28718C43.4066 9.28718 44.1913 9.60818 44.7382 10.2502C45.2851 10.8922 45.5585 11.7185 45.5585 12.729V18.2217H43.4899V13.0857C43.4899 12.5031 43.3472 12.0395 43.0619 11.6947C42.7765 11.338 42.3247 11.1597 41.7065 11.1597C41.1596 11.1597 40.7257 11.344 40.4047 11.7125C40.0956 12.0811 39.9291 12.5507 39.9054 13.1213ZM50.1634 15.9033C50.639 16.3908 51.2156 16.6345 51.8933 16.6345C52.5709 16.6345 53.1416 16.3908 53.6053 15.9033C54.0808 15.4159 54.3186 14.7382 54.3186 13.8703C54.3186 13.0143 54.0808 12.3486 53.6053 11.873C53.1416 11.3856 52.5709 11.1418 51.8933 11.1418C51.2156 11.1418 50.639 11.3856 50.1634 11.873C49.6998 12.3486 49.4679 13.0143 49.4679 13.8703C49.4679 14.7263 49.6998 15.404 50.1634 15.9033ZM51.8933 9.26935C53.201 9.26935 54.277 9.70329 55.1211 10.5712C55.9771 11.4391 56.4051 12.5388 56.4051 13.8703C56.4051 15.2019 55.9771 16.3076 55.1211 17.1873C54.277 18.0552 53.201 18.4892 51.8933 18.4892C50.5974 18.4892 49.5214 18.0552 48.6654 17.1873C47.8213 16.3076 47.3993 15.2019 47.3993 13.8703C47.3993 12.5388 47.8213 11.4391 48.6654 10.5712C49.5214 9.70329 50.5974 9.26935 51.8933 9.26935ZM60.4551 21.61H58.4042V9.53685H60.4016V10.7138C60.6275 10.3215 60.9841 9.99457 61.4716 9.73301C61.959 9.47146 62.5237 9.34068 63.1657 9.34068C64.4141 9.34068 65.3949 9.76868 66.1082 10.6247C66.8216 11.4688 67.1782 12.5507 67.1782 13.8703C67.1782 15.19 66.8037 16.2838 66.0547 17.1517C65.3057 18.0077 64.319 18.4357 63.0944 18.4357C62.5 18.4357 61.9709 18.3227 61.5072 18.0968C61.0436 17.871 60.6928 17.5856 60.4551 17.2408V21.61ZM65.1096 13.8703C65.1096 13.0619 64.8956 12.414 64.4676 11.9265C64.0396 11.4272 63.4748 11.1775 62.7734 11.1775C62.0838 11.1775 61.5191 11.4272 61.0792 11.9265C60.6512 12.414 60.4372 13.0619 60.4372 13.8703C60.4372 14.6907 60.6512 15.3505 61.0792 15.8498C61.5191 16.3492 62.0838 16.5988 62.7734 16.5988C63.463 16.5988 64.0217 16.3492 64.4497 15.8498C64.8896 15.3505 65.1096 14.6907 65.1096 13.8703ZM71.4853 16.26H73.7323C74.8974 16.26 75.8544 15.8915 76.6034 15.1543C77.3643 14.4053 77.7448 13.3294 77.7448 11.9265C77.7448 10.5117 77.3703 9.42985 76.6213 8.68085C75.8723 7.91996 74.9152 7.53951 73.7501 7.53951H71.4853V16.26ZM73.8036 18.2217H69.3453V5.57785H73.8214C75.6048 5.57785 77.073 6.14257 78.2263 7.27201C79.3914 8.40146 79.9739 9.95296 79.9739 11.9265C79.9739 13.8882 79.3914 15.4278 78.2263 16.5453C77.0611 17.6629 75.5869 18.2217 73.8036 18.2217ZM83.5162 12.9252H87.7784C87.7546 12.3783 87.5584 11.9206 87.1899 11.552C86.8332 11.1835 86.316 10.9992 85.6384 10.9992C85.0202 10.9992 84.5208 11.1953 84.1404 11.5877C83.7599 11.9681 83.5519 12.414 83.5162 12.9252ZM88.0102 15.19L89.7579 15.7428C89.5082 16.5394 89.0386 17.1992 88.349 17.7223C87.6714 18.2336 86.8332 18.4892 85.8345 18.4892C84.5981 18.4892 83.5459 18.0671 82.678 17.223C81.822 16.3789 81.394 15.2495 81.394 13.8347C81.394 12.5031 81.8102 11.4093 82.6424 10.5533C83.4865 9.69735 84.4792 9.26935 85.6205 9.26935C86.9521 9.26935 87.9924 9.67951 88.7414 10.4998C89.4904 11.3083 89.8649 12.4021 89.8649 13.7812C89.8649 14.1497 89.847 14.3697 89.8114 14.441H83.4627C83.4865 15.0949 83.7243 15.6358 84.176 16.0638C84.6397 16.4918 85.1925 16.7058 85.8345 16.7058C86.9521 16.7058 87.6773 16.2006 88.0102 15.19ZM91.0749 15.8677L92.8761 15.3683C92.9117 15.7845 93.0841 16.1352 93.3932 16.4205C93.7023 16.7058 94.1184 16.8485 94.6416 16.8485C95.0458 16.8485 95.3608 16.7534 95.5867 16.5632C95.8245 16.373 95.9434 16.1352 95.9434 15.8498C95.9434 15.3505 95.6046 15.0295 94.9269 14.8868L93.6429 14.6015C92.8939 14.4351 92.3173 14.126 91.9131 13.6742C91.5088 13.2224 91.3067 12.6874 91.3067 12.0692C91.3067 11.3083 91.6158 10.6544 92.2341 10.1075C92.8523 9.54874 93.6072 9.26935 94.4989 9.26935C95.0696 9.26935 95.5748 9.35257 96.0147 9.51901C96.4546 9.68546 96.7934 9.9054 97.0312 10.1788C97.2809 10.4404 97.4711 10.696 97.6019 10.9457C97.7327 11.1953 97.8159 11.445 97.8516 11.6947L96.1039 12.194C96.0563 11.8611 95.9018 11.5639 95.6402 11.3023C95.3906 11.0289 95.0101 10.8922 94.4989 10.8922C94.1422 10.8922 93.845 10.9932 93.6072 11.1953C93.3694 11.3856 93.2506 11.6174 93.2506 11.8908C93.2506 12.3783 93.5418 12.6815 94.1244 12.8003L95.4441 13.0678C96.2525 13.2462 96.8707 13.5672 97.2987 14.0308C97.7267 14.4945 97.9407 15.0533 97.9407 15.7072C97.9407 16.4324 97.6494 17.0803 97.0669 17.651C96.4962 18.2098 95.6937 18.4892 94.6594 18.4892C94.0649 18.4892 93.5299 18.4 93.0544 18.2217C92.5907 18.0433 92.2222 17.8175 91.9487 17.544C91.6872 17.2587 91.4791 16.9793 91.3246 16.7058C91.1819 16.4205 91.0987 16.1411 91.0749 15.8677ZM108.124 9.53685L104.557 13.2105L108.195 18.2217H105.663L103.113 14.6728L102.043 15.7963V18.2217H99.9921V5.31035H102.043V13.05L105.378 9.53685H108.124Z" fill="white"/>
</svg>
