<svg width="29" height="24" viewBox="0 0 29 24" fill="none" xmlns="http://www.w3.org/2000/svg">
<path d="M6.5013 10.6663V15.9997M22.5013 7.99967V13.333M21.168 1.33301C24.4329 1.33301 26.1988 1.83269 27.0775 2.22026C27.1945 2.27188 27.253 2.29769 27.4218 2.45884C27.5231 2.55543 27.7078 2.83887 27.7553 2.97046C27.8346 3.18999 27.8346 3.30999 27.8346 3.55V17.8812C27.8346 19.0929 27.8346 19.6987 27.6529 20.0101C27.4681 20.3269 27.2898 20.4742 26.9439 20.5959C26.6038 20.7156 25.9173 20.5837 24.5442 20.3199C23.5831 20.1352 22.4433 19.9997 21.168 19.9997C17.168 19.9997 13.168 22.6663 7.83464 22.6663C4.56969 22.6663 2.80379 22.1667 1.92515 21.7791C1.80813 21.7275 1.74963 21.7017 1.58077 21.5405C1.47955 21.4439 1.29479 21.1605 1.24726 21.0289C1.16797 20.8094 1.16797 20.6894 1.16797 20.4493L1.16797 6.11815C1.16797 4.90646 1.16797 4.30061 1.34967 3.9892C1.5345 3.67243 1.71276 3.52516 2.05871 3.40342C2.39882 3.28374 3.08535 3.41565 4.45841 3.67947C5.41946 3.86413 6.55927 3.99967 7.83464 3.99967C11.8346 3.99967 15.8346 1.33301 21.168 1.33301ZM17.8346 11.9997C17.8346 13.8406 16.3423 15.333 14.5013 15.333C12.6604 15.333 11.168 13.8406 11.168 11.9997C11.168 10.1587 12.6604 8.66634 14.5013 8.66634C16.3423 8.66634 17.8346 10.1587 17.8346 11.9997Z" stroke="#FCB055" stroke-width="2" stroke-linecap="round" stroke-linejoin="round"/>
</svg>
