<svg width="29" height="26" viewBox="0 0 29 26" fill="none" xmlns="http://www.w3.org/2000/svg">
<path d="M25.8346 7.66667V18.6C25.8346 20.8402 25.8346 21.9603 25.3987 22.816C25.0152 23.5686 24.4032 24.1805 23.6506 24.564C22.795 25 21.6748 25 19.4346 25H9.56797C7.32776 25 6.20765 25 5.35201 24.564C4.59936 24.1805 3.98744 23.5686 3.60394 22.816C3.16797 21.9603 3.16797 20.8402 3.16797 18.6V7.66667M3.3013 1H25.7013C26.448 1 26.8214 1 27.1066 1.14532C27.3575 1.27316 27.5615 1.47713 27.6893 1.72801C27.8346 2.01323 27.8346 2.3866 27.8346 3.13333V5.53333C27.8346 6.28007 27.8346 6.65344 27.6893 6.93865C27.5615 7.18954 27.3575 7.39351 27.1066 7.52134C26.8214 7.66667 26.448 7.66667 25.7013 7.66667H3.3013C2.55457 7.66667 2.1812 7.66667 1.89598 7.52134C1.6451 7.39351 1.44112 7.18954 1.31329 6.93865C1.16797 6.65344 1.16797 6.28007 1.16797 5.53333V3.13333C1.16797 2.3866 1.16797 2.01323 1.31329 1.72801C1.44112 1.47713 1.6451 1.27316 1.89598 1.14532C2.1812 1 2.55457 1 3.3013 1ZM11.3013 12.3333H17.7013C18.448 12.3333 18.8214 12.3333 19.1066 12.4787C19.3575 12.6065 19.5615 12.8105 19.6893 13.0613C19.8346 13.3466 19.8346 13.7199 19.8346 14.4667V15.5333C19.8346 16.2801 19.8346 16.6534 19.6893 16.9387C19.5615 17.1895 19.3575 17.3935 19.1066 17.5213C18.8214 17.6667 18.448 17.6667 17.7013 17.6667H11.3013C10.5546 17.6667 10.1812 17.6667 9.89598 17.5213C9.6451 17.3935 9.44112 17.1895 9.31329 16.9387C9.16797 16.6534 9.16797 16.2801 9.16797 15.5333V14.4667C9.16797 13.7199 9.16797 13.3466 9.31329 13.0613C9.44112 12.8105 9.6451 12.6065 9.89598 12.4787C10.1812 12.3333 10.5546 12.3333 11.3013 12.3333Z" stroke="#FF4C56" stroke-width="2" stroke-linecap="round" stroke-linejoin="round"/>
</svg>
