<svg width="25" height="26" viewBox="0 0 25 26" fill="none" xmlns="http://www.w3.org/2000/svg">
<path d="M8.4987 11L11.1654 13.6667L17.1654 7.66667M23.1654 25V7.4C23.1654 5.15979 23.1654 4.03969 22.7294 3.18404C22.3459 2.43139 21.734 1.81947 20.9813 1.43597C20.1257 1 19.0056 1 16.7654 1H8.23203C5.99182 1 4.87172 1 4.01607 1.43597C3.26342 1.81947 2.6515 2.43139 2.26801 3.18404C1.83203 4.03969 1.83203 5.15979 1.83203 7.4V25L5.4987 22.3333L8.83203 25L12.4987 22.3333L16.1654 25L19.4987 22.3333L23.1654 25Z" stroke="#33AE6D" stroke-width="2" stroke-linecap="round" stroke-linejoin="round"/>
</svg>
