<svg width="29" height="25" viewBox="0 0 29 25" fill="none" xmlns="http://www.w3.org/2000/svg">
<path d="M25.1654 23.6667V14.3333M14.4987 23.6667V10.3333M3.83203 23.6667L3.83203 18.3333M16.3743 3.70334L23.2655 6.28756M12.8971 4.20123L5.43234 9.79977M26.5796 5.58579C27.3606 6.36683 27.3606 7.63316 26.5796 8.41421C25.7985 9.19526 24.5322 9.19526 23.7512 8.41421C22.9701 7.63316 22.9701 6.36683 23.7512 5.58579C24.5322 4.80474 25.7985 4.80474 26.5796 5.58579ZM5.24624 9.58579C6.02729 10.3668 6.02729 11.6332 5.24624 12.4142C4.4652 13.1953 3.19887 13.1953 2.41782 12.4142C1.63677 11.6332 1.63677 10.3668 2.41782 9.58579C3.19887 8.80474 4.4652 8.80474 5.24624 9.58579ZM15.9129 1.58579C16.694 2.36683 16.694 3.63316 15.9129 4.41421C15.1319 5.19526 13.8655 5.19526 13.0845 4.41421C12.3034 3.63316 12.3034 2.36683 13.0845 1.58579C13.8655 0.804738 15.1319 0.804738 15.9129 1.58579Z" stroke="#33ABFF" stroke-width="2" stroke-linecap="round" stroke-linejoin="round"/>
</svg>
