<svg width="54" height="54" viewBox="0 0 54 54" fill="none" xmlns="http://www.w3.org/2000/svg">
<rect width="53.5" height="53.5" rx="11.8889" fill="black" fill-opacity="0.4"/>
<path d="M26.7554 39.1347C33.595 39.1347 39.1396 33.5901 39.1396 26.7505C39.1396 19.9108 33.595 14.3662 26.7554 14.3662C19.9157 14.3662 14.3711 19.9108 14.3711 26.7505C14.3711 33.5901 19.9157 39.1347 26.7554 39.1347Z" stroke="white" stroke-width="2.08056" stroke-linecap="round" stroke-linejoin="round"/>
<path d="M23.6593 22.9923C23.6593 22.4012 23.6593 22.1056 23.7828 21.9406C23.8905 21.7969 24.0552 21.7069 24.2344 21.6941C24.44 21.6794 24.6886 21.8392 25.1858 22.1589L31.0319 25.9171C31.4633 26.1944 31.6791 26.3331 31.7536 26.5095C31.8187 26.6635 31.8187 26.8374 31.7536 26.9915C31.6791 27.1678 31.4633 27.3065 31.0319 27.5839L25.1858 31.3421C24.6886 31.6617 24.44 31.8215 24.2344 31.8068C24.0552 31.794 23.8905 31.7041 23.7828 31.5603C23.6593 31.3953 23.6593 31.0998 23.6593 30.5087V22.9923Z" stroke="white" stroke-width="2.08056" stroke-linecap="round" stroke-linejoin="round"/>
</svg>
