<svg width="28" height="28" viewBox="0 0 28 28" fill="none" xmlns="http://www.w3.org/2000/svg">
<path d="M6.99967 12.8334V17.5M20.9997 10.5V15.1667M19.833 4.66669C22.6898 4.66669 24.235 5.10391 25.0038 5.44304C25.1062 5.4882 25.1574 5.51078 25.3051 5.65179C25.3937 5.73631 25.5554 5.98431 25.597 6.09946C25.6663 6.29155 25.6663 6.39655 25.6663 6.60655V19.1464C25.6663 20.2066 25.6663 20.7367 25.5073 21.0092C25.3456 21.2864 25.1897 21.4152 24.8869 21.5217C24.5893 21.6265 23.9886 21.511 22.7872 21.2802C21.9463 21.1186 20.9489 21 19.833 21C16.333 21 12.833 23.3334 8.16634 23.3334C5.30952 23.3334 3.76435 22.8961 2.99554 22.557C2.89315 22.5118 2.84196 22.4893 2.69421 22.3483C2.60564 22.2637 2.44398 22.0157 2.40239 21.9006C2.33301 21.7085 2.33301 21.6035 2.33301 21.3935L2.33301 8.85368C2.33301 7.79345 2.33301 7.26334 2.492 6.99085C2.65373 6.71368 2.8097 6.58482 3.11241 6.4783C3.41 6.37358 4.01071 6.489 5.21214 6.71984C6.05306 6.88142 7.0504 7.00002 8.16634 7.00002C11.6663 7.00002 15.1663 4.66669 19.833 4.66669ZM16.9163 14C16.9163 15.6108 15.6105 16.9167 13.9997 16.9167C12.3888 16.9167 11.083 15.6108 11.083 14C11.083 12.3892 12.3888 11.0834 13.9997 11.0834C15.6105 11.0834 16.9163 12.3892 16.9163 14Z" stroke="#00802F" stroke-width="1.4" stroke-linecap="round" stroke-linejoin="round"/>
</svg>
