<svg width="569" height="18" viewBox="0 0 569 18" fill="none" xmlns="http://www.w3.org/2000/svg">
<g clip-path="url(#clip0_5171_7812)">
<path d="M0 0H569V11.6C569 13.8402 569 14.9603 568.564 15.816C568.181 16.5686 567.569 17.1805 566.816 17.564C565.96 18 564.84 18 562.6 18H6.40004C4.1598 18 3.03969 18 2.18404 17.564C1.43139 17.1805 0.819467 16.5686 0.435974 15.816C0 14.9603 0 13.8402 0 11.6V0Z" fill="white"/>
<line x1="-13.9393" y1="-7.06066" x2="34.0607" y2="40.9393" stroke="#B2E1C8" stroke-width="3"/>
<line x1="-3.93934" y1="-7.06066" x2="44.0607" y2="40.9393" stroke="#B2E1C8" stroke-width="3"/>
<line x1="6.06066" y1="-7.06066" x2="54.0607" y2="40.9393" stroke="#B2E1C8" stroke-width="3"/>
<line x1="16.0607" y1="-7.06066" x2="64.0607" y2="40.9393" stroke="#B2E1C8" stroke-width="3"/>
<line x1="26.0607" y1="-7.06066" x2="74.0607" y2="40.9393" stroke="#B2E1C8" stroke-width="3"/>
<line x1="36.0607" y1="-7.06066" x2="84.0607" y2="40.9393" stroke="#B2E1C8" stroke-width="3"/>
<line x1="46.0607" y1="-7.06066" x2="94.0607" y2="40.9393" stroke="#B2E1C8" stroke-width="3"/>
<line x1="56.0607" y1="-7.06066" x2="104.061" y2="40.9393" stroke="#B2E1C8" stroke-width="3"/>
<line x1="66.0607" y1="-7.06066" x2="114.061" y2="40.9393" stroke="#B2E1C8" stroke-width="3"/>
<line x1="76.0607" y1="-7.06066" x2="124.061" y2="40.9393" stroke="#B2E1C8" stroke-width="3"/>
<line x1="86.0607" y1="-7.06066" x2="134.061" y2="40.9393" stroke="#B2E1C8" stroke-width="3"/>
<line x1="96.0607" y1="-7.06066" x2="144.061" y2="40.9393" stroke="#B2E1C8" stroke-width="3"/>
<line x1="106.061" y1="-7.06066" x2="154.061" y2="40.9393" stroke="#B2E1C8" stroke-width="3"/>
<line x1="116.061" y1="-7.06066" x2="164.061" y2="40.9393" stroke="#B2E1C8" stroke-width="3"/>
<line x1="126.061" y1="-7.06066" x2="174.061" y2="40.9393" stroke="#B2E1C8" stroke-width="3"/>
<line x1="136.061" y1="-7.06066" x2="184.061" y2="40.9393" stroke="#B2E1C8" stroke-width="3"/>
<line x1="146.061" y1="-7.06066" x2="194.061" y2="40.9393" stroke="#B2E1C8" stroke-width="3"/>
<line x1="156.061" y1="-7.06066" x2="204.061" y2="40.9393" stroke="#B2E1C8" stroke-width="3"/>
<line x1="166.061" y1="-7.06066" x2="214.061" y2="40.9393" stroke="#B2E1C8" stroke-width="3"/>
<line x1="176.061" y1="-7.06066" x2="224.061" y2="40.9393" stroke="#B2E1C8" stroke-width="3"/>
<line x1="186.061" y1="-7.06066" x2="234.061" y2="40.9393" stroke="#B2E1C8" stroke-width="3"/>
<line x1="196.061" y1="-7.06066" x2="244.061" y2="40.9393" stroke="#B2E1C8" stroke-width="3"/>
<line x1="206.061" y1="-7.06066" x2="254.061" y2="40.9393" stroke="#B2E1C8" stroke-width="3"/>
<line x1="216.061" y1="-7.06066" x2="264.061" y2="40.9393" stroke="#B2E1C8" stroke-width="3"/>
<line x1="226.061" y1="-7.06066" x2="274.061" y2="40.9393" stroke="#B2E1C8" stroke-width="3"/>
<line x1="236.061" y1="-7.06066" x2="284.061" y2="40.9393" stroke="#B2E1C8" stroke-width="3"/>
<line x1="246.061" y1="-7.06066" x2="294.061" y2="40.9393" stroke="#B2E1C8" stroke-width="3"/>
<line x1="256.061" y1="-7.06066" x2="304.061" y2="40.9393" stroke="#B2E1C8" stroke-width="3"/>
<line x1="266.061" y1="-7.06066" x2="314.061" y2="40.9393" stroke="#B2E1C8" stroke-width="3"/>
<line x1="276.061" y1="-7.06066" x2="324.061" y2="40.9393" stroke="#B2E1C8" stroke-width="3"/>
<line x1="286.061" y1="-7.06066" x2="334.061" y2="40.9393" stroke="#B2E1C8" stroke-width="3"/>
<line x1="296.061" y1="-7.06066" x2="344.061" y2="40.9393" stroke="#B2E1C8" stroke-width="3"/>
<line x1="306.061" y1="-7.06066" x2="354.061" y2="40.9393" stroke="#B2E1C8" stroke-width="3"/>
<line x1="316.061" y1="-7.06066" x2="364.061" y2="40.9393" stroke="#B2E1C8" stroke-width="3"/>
<line x1="326.061" y1="-7.06066" x2="374.061" y2="40.9393" stroke="#B2E1C8" stroke-width="3"/>
<line x1="336.061" y1="-7.06066" x2="384.061" y2="40.9393" stroke="#B2E1C8" stroke-width="3"/>
<line x1="346.061" y1="-7.06066" x2="394.061" y2="40.9393" stroke="#B2E1C8" stroke-width="3"/>
<line x1="356.061" y1="-7.06066" x2="404.061" y2="40.9393" stroke="#B2E1C8" stroke-width="3"/>
<line x1="366.061" y1="-7.06066" x2="414.061" y2="40.9393" stroke="#B2E1C8" stroke-width="3"/>
<line x1="376.061" y1="-7.06066" x2="424.061" y2="40.9393" stroke="#B2E1C8" stroke-width="3"/>
<line x1="386.061" y1="-7.06066" x2="434.061" y2="40.9393" stroke="#B2E1C8" stroke-width="3"/>
<line x1="396.061" y1="-7.06066" x2="444.061" y2="40.9393" stroke="#B2E1C8" stroke-width="3"/>
<line x1="406.061" y1="-7.06066" x2="454.061" y2="40.9393" stroke="#B2E1C8" stroke-width="3"/>
<line x1="416.061" y1="-7.06066" x2="464.061" y2="40.9393" stroke="#B2E1C8" stroke-width="3"/>
<line x1="426.061" y1="-7.06066" x2="474.061" y2="40.9393" stroke="#B2E1C8" stroke-width="3"/>
<line x1="436.061" y1="-7.06066" x2="484.061" y2="40.9393" stroke="#B2E1C8" stroke-width="3"/>
<line x1="446.061" y1="-7.06066" x2="494.061" y2="40.9393" stroke="#B2E1C8" stroke-width="3"/>
<line x1="456.061" y1="-7.06066" x2="504.061" y2="40.9393" stroke="#B2E1C8" stroke-width="3"/>
<line x1="466.061" y1="-7.06066" x2="514.061" y2="40.9393" stroke="#B2E1C8" stroke-width="3"/>
<line x1="476.061" y1="-7.06066" x2="524.061" y2="40.9393" stroke="#B2E1C8" stroke-width="3"/>
<line x1="486.061" y1="-7.06066" x2="534.061" y2="40.9393" stroke="#B2E1C8" stroke-width="3"/>
<line x1="496.061" y1="-7.06066" x2="544.061" y2="40.9393" stroke="#B2E1C8" stroke-width="3"/>
<line x1="506.061" y1="-7.06066" x2="554.061" y2="40.9393" stroke="#B2E1C8" stroke-width="3"/>
<line x1="516.061" y1="-7.06066" x2="564.061" y2="40.9393" stroke="#B2E1C8" stroke-width="3"/>
<line x1="526.061" y1="-7.06066" x2="574.061" y2="40.9393" stroke="#B2E1C8" stroke-width="3"/>
<line x1="536.061" y1="-7.06066" x2="584.061" y2="40.9393" stroke="#B2E1C8" stroke-width="3"/>
<line x1="546.061" y1="-7.06066" x2="594.061" y2="40.9393" stroke="#B2E1C8" stroke-width="3"/>
<line x1="556.061" y1="-7.06066" x2="604.061" y2="40.9393" stroke="#B2E1C8" stroke-width="3"/>
<line x1="566.061" y1="-7.06066" x2="614.061" y2="40.9393" stroke="#B2E1C8" stroke-width="3"/>
</g>
<defs>
<clipPath id="clip0_5171_7812">
<path d="M0 0H569V11.6C569 13.8402 569 14.9603 568.564 15.816C568.181 16.5686 567.569 17.1805 566.816 17.564C565.96 18 564.84 18 562.6 18H6.40004C4.1598 18 3.03969 18 2.18404 17.564C1.43139 17.1805 0.819467 16.5686 0.435974 15.816C0 14.9603 0 13.8402 0 11.6V0Z" fill="white"/>
</clipPath>
</defs>
</svg>
