<svg width="24" height="26" viewBox="0 0 24 26" fill="none" xmlns="http://www.w3.org/2000/svg">
<path d="M8.00016 11L10.6668 13.6667L16.6668 7.66667M22.6668 25V7.4C22.6668 5.15979 22.6668 4.03969 22.2309 3.18404C21.8474 2.43139 21.2354 1.81947 20.4828 1.43597C19.6271 1 18.507 1 16.2668 1H7.7335C5.49329 1 4.37318 1 3.51753 1.43597C2.76489 1.81947 2.15296 2.43139 1.76947 3.18404C1.3335 4.03969 1.3335 5.15979 1.3335 7.4V25L5.00016 22.3333L8.3335 25L12.0002 22.3333L15.6668 25L19.0002 22.3333L22.6668 25Z" stroke="#00802F" stroke-width="1.4" stroke-linecap="round" stroke-linejoin="round"/>
</svg>
