<svg width="19" height="18" viewBox="0 0 19 18" fill="none" xmlns="http://www.w3.org/2000/svg">
<path d="M3.75002 16.3631C4.20195 16.5 4.81237 16.5 5.85 16.5H13.65C14.6876 16.5 15.298 16.5 15.75 16.3631M3.75002 16.3631C3.65312 16.3337 3.5635 16.2981 3.47852 16.2548C3.05516 16.039 2.71095 15.6948 2.49524 15.2715C2.25 14.7902 2.25 14.1601 2.25 12.9V5.1C2.25 3.83988 2.25 3.20982 2.49524 2.72852C2.71095 2.30516 3.05516 1.96095 3.47852 1.74524C3.95982 1.5 4.58988 1.5 5.85 1.5H13.65C14.9101 1.5 15.5402 1.5 16.0215 1.74524C16.4448 1.96095 16.789 2.30516 17.0048 2.72852C17.25 3.20982 17.25 3.83988 17.25 5.1V12.9C17.25 14.1601 17.25 14.7902 17.0048 15.2715C16.789 15.6948 16.4448 16.039 16.0215 16.2548C15.9365 16.2981 15.8469 16.3337 15.75 16.3631M3.75002 16.3631C3.75026 15.7561 3.7539 15.4349 3.80764 15.1647C4.04436 13.9747 4.97466 13.0444 6.16473 12.8076C6.45453 12.75 6.80302 12.75 7.5 12.75H12C12.697 12.75 13.0455 12.75 13.3353 12.8076C14.5253 13.0444 15.4556 13.9747 15.6924 15.1647C15.7461 15.4349 15.7497 15.7561 15.75 16.3631M12.75 7.125C12.75 8.78185 11.4069 10.125 9.75 10.125C8.09315 10.125 6.75 8.78185 6.75 7.125C6.75 5.46815 8.09315 4.125 9.75 4.125C11.4069 4.125 12.75 5.46815 12.75 7.125Z" stroke="#2A2A2A" stroke-width="1.4" stroke-linecap="round" stroke-linejoin="round"/>
</svg>
