<svg width="57" height="56" viewBox="0 0 57 56" fill="none" xmlns="http://www.w3.org/2000/svg">
<rect x="0.5" width="56" height="56" rx="8" fill="#CCEBDB"/>
<path d="M30.8256 15.5114L40.863 22.0357C41.2176 22.2662 41.395 22.3815 41.5235 22.5353C41.6372 22.6714 41.7226 22.8288 41.7748 22.9983C41.8337 23.1899 41.8337 23.4014 41.8337 23.8244V33.6C41.8337 35.8402 41.8337 36.9603 41.3977 37.816C41.0142 38.5686 40.4023 39.1805 39.6496 39.564C38.794 40 37.6739 40 35.4337 40H21.567C19.3268 40 18.2067 40 17.351 39.564C16.5984 39.1805 15.9865 38.5686 15.603 37.816C15.167 36.9603 15.167 35.8402 15.167 33.6V23.8244C15.167 23.4014 15.167 23.1899 15.2259 22.9983C15.278 22.8288 15.3635 22.6714 15.4772 22.5353C15.6057 22.3815 15.783 22.2662 16.1377 22.0357L26.175 15.5114M30.8256 15.5114C29.984 14.9644 29.5631 14.6908 29.1097 14.5844C28.7089 14.4903 28.2918 14.4903 27.891 14.5844C27.4375 14.6908 27.0167 14.9644 26.175 15.5114M30.8256 15.5114L40.4578 21.7723C40.9163 22.0704 41.1456 22.2194 41.225 22.4084C41.2944 22.5736 41.2944 22.7597 41.225 22.9249C41.1456 23.1139 40.9163 23.2629 40.4578 23.561L30.8256 29.8219C29.984 30.369 29.5631 30.6425 29.1097 30.7489C28.7089 30.843 28.2918 30.843 27.891 30.7489C27.4375 30.6425 27.0167 30.369 26.175 29.8219L16.5429 23.561C16.0843 23.2629 15.8551 23.1139 15.7756 22.9249C15.7062 22.7597 15.7062 22.5736 15.7756 22.4084C15.8551 22.2194 16.0843 22.0704 16.5429 21.7723L26.175 15.5114" stroke="#00802F" stroke-width="1.4" stroke-linecap="round" stroke-linejoin="round"/>
</svg>
