<svg width="19" height="18" viewBox="0 0 19 18" fill="none" xmlns="http://www.w3.org/2000/svg">
<path d="M7.5 9L9 10.5L12.375 7.125M7.65143 15.4507C7.89724 15.4182 8.14555 15.4848 8.34137 15.6356L9.24379 16.3281C9.5421 16.5573 9.95707 16.5573 10.2545 16.3281L11.1911 15.609C11.3661 15.4748 11.5869 15.4157 11.8052 15.4448L12.9768 15.599C13.3493 15.6481 13.7084 15.4407 13.8526 15.0932L14.3034 14.0032C14.3875 13.799 14.5492 13.6374 14.7533 13.5532L15.8432 13.1024C16.1907 12.9591 16.3982 12.5991 16.349 12.2266L16.2007 11.0974C16.1682 10.8516 16.2349 10.6033 16.3857 10.4075L17.0781 9.50499C17.3073 9.20666 17.3073 8.79167 17.0781 8.49418L16.359 7.55754C16.2249 7.38255 16.1657 7.16172 16.1949 6.94339L16.349 5.77176C16.3982 5.39927 16.1907 5.04011 15.8432 4.89595L14.7533 4.44513C14.5492 4.36096 14.3875 4.1993 14.3034 3.99514L13.8526 2.90517C13.7093 2.55768 13.3493 2.35018 12.9768 2.39935L11.8052 2.55351C11.5869 2.58351 11.3661 2.52435 11.192 2.39102L10.2554 1.67187C9.95707 1.44271 9.5421 1.44271 9.24463 1.67187L8.30804 2.39102C8.13305 2.52435 7.91224 2.58351 7.69392 2.55518L6.52235 2.40102C6.14988 2.35185 5.79075 2.55935 5.64659 2.90684L5.19663 3.99681C5.11164 4.20013 4.94998 4.3618 4.74667 4.44679L3.65676 4.89678C3.30929 5.04094 3.1018 5.4001 3.15097 5.77259L3.30512 6.94422C3.33345 7.16255 3.27429 7.38338 3.14097 7.55754L2.42186 8.49418C2.19271 8.79251 2.19271 9.20749 2.42186 9.50499L3.14097 10.4416C3.27512 10.6166 3.33428 10.8374 3.30512 11.0558L3.15097 12.2274C3.1018 12.5999 3.30929 12.9591 3.65676 13.1032L4.74667 13.554C4.95082 13.6382 5.11247 13.7999 5.19663 14.004L5.64743 15.094C5.79075 15.4415 6.15072 15.649 6.52319 15.5998L7.65143 15.4507Z" stroke="white" stroke-width="1.4" stroke-linecap="round" stroke-linejoin="round"/>
</svg>
