<svg width="33" height="32" viewBox="0 0 33 32" fill="none" xmlns="http://www.w3.org/2000/svg">
<path d="M28.5 12L28.5 4M28.5 4H20.5M28.5 4L17.8333 14.6667M13.8333 6.66667H10.9C8.65979 6.66667 7.53969 6.66667 6.68404 7.10264C5.93139 7.48613 5.31947 8.09806 4.93597 8.8507C4.5 9.70635 4.5 10.8265 4.5 13.0667V21.6C4.5 23.8402 4.5 24.9603 4.93597 25.816C5.31947 26.5686 5.93139 27.1805 6.68404 27.564C7.53969 28 8.65979 28 10.9 28H19.4333C21.6735 28 22.7936 28 23.6493 27.564C24.4019 27.1805 25.0139 26.5686 25.3974 25.816C25.8333 24.9603 25.8333 23.8402 25.8333 21.6V18.6667" stroke="#00802F" stroke-width="1.4" stroke-linecap="round" stroke-linejoin="round"/>
</svg>
