<svg width="48" height="48" viewBox="0 0 48 48" fill="none" xmlns="http://www.w3.org/2000/svg">
<rect width="48" height="48" rx="8" fill="#CCEBDB"/>
<path d="M20.5 13.5V34.5M27.5 13.5V34.5M19.1 13.5H28.9C30.8602 13.5 31.8403 13.5 32.589 13.8815C33.2475 14.217 33.783 14.7525 34.1185 15.411C34.5 16.1597 34.5 17.1398 34.5 19.1V28.9C34.5 30.8602 34.5 31.8403 34.1185 32.589C33.783 33.2475 33.2475 33.783 32.589 34.1185C31.8403 34.5 30.8602 34.5 28.9 34.5H19.1C17.1398 34.5 16.1597 34.5 15.411 34.1185C14.7525 33.783 14.217 33.2475 13.8815 32.589C13.5 31.8403 13.5 30.8602 13.5 28.9V19.1C13.5 17.1398 13.5 16.1597 13.8815 15.411C14.217 14.7525 14.7525 14.217 15.411 13.8815C16.1597 13.5 17.1398 13.5 19.1 13.5Z" stroke="#00802F" stroke-width="1.4" stroke-linecap="round" stroke-linejoin="round"/>
</svg>
