<svg width="48" height="48" viewBox="0 0 48 48" fill="none" xmlns="http://www.w3.org/2000/svg">
<rect width="48" height="48" rx="8" fill="#CCEBDB"/>
<path d="M24.5833 13.4999H19.1C17.1398 13.4999 16.1597 13.4999 15.411 13.8814C14.7525 14.217 14.217 14.7524 13.8815 15.411C13.5 16.1596 13.5 17.1397 13.5 19.0999V28.8999C13.5 30.8601 13.5 31.8402 13.8815 32.5889C14.217 33.2475 14.7525 33.7829 15.411 34.1184C16.1597 34.4999 17.1398 34.4999 19.1 34.4999H29.8333C30.9183 34.4999 31.4608 34.4999 31.9059 34.3807C33.1137 34.057 34.0571 33.1136 34.3807 31.9058C34.5 31.4607 34.5 30.9182 34.5 29.8333M32.1667 19.3333V12.3333M28.6667 15.8333H35.6667M22.25 19.9166C22.25 21.2052 21.2053 22.2499 19.9167 22.2499C18.628 22.2499 17.5833 21.2052 17.5833 19.9166C17.5833 18.6279 18.628 17.5833 19.9167 17.5833C21.2053 17.5833 22.25 18.6279 22.25 19.9166ZM27.4884 23.9044L17.6197 32.876C17.0646 33.3806 16.787 33.6329 16.7625 33.8515C16.7412 34.0409 16.8139 34.2288 16.957 34.3547C17.1222 34.4999 17.4973 34.4999 18.2475 34.4999H29.1986C30.8777 34.4999 31.7172 34.4999 32.3766 34.2178C33.2043 33.8637 33.8638 33.2043 34.2179 32.3765C34.5 31.7171 34.5 30.8776 34.5 29.1986C34.5 28.6336 34.5 28.3512 34.4382 28.0881C34.3606 27.7575 34.2118 27.4478 34.0021 27.1807C33.8353 26.9682 33.6147 26.7917 33.1736 26.4388L29.9101 23.828C29.4686 23.4748 29.2479 23.2982 29.0048 23.2359C28.7905 23.1809 28.565 23.1881 28.3546 23.2564C28.1159 23.3339 27.9067 23.5241 27.4884 23.9044Z" stroke="#00802F" stroke-width="1.4" stroke-linecap="round" stroke-linejoin="round"/>
</svg>
