<svg width="28" height="28" viewBox="0 0 28 28" fill="none" xmlns="http://www.w3.org/2000/svg">
<path d="M9.82605 24.0544C11.8743 25.1293 12.8984 25.6667 14 25.6667V14L3.07773 8.25146C3.06164 8.27732 3.04586 8.3034 3.03034 8.32976C2.33337 9.51334 2.33337 10.9862 2.33337 13.9318V14.0683C2.33337 17.0139 2.33337 18.4868 3.03034 19.6704C3.7273 20.854 4.98244 21.5127 7.49271 22.83L9.82605 24.0544Z" fill="#009A49"/>
<path opacity="0.7" d="M20.5069 5.17027L18.1736 3.94579C16.1254 2.87093 15.1013 2.3335 13.9996 2.3335C12.8979 2.3335 11.8738 2.87093 9.82559 3.94579L7.49225 5.17027C5.03787 6.45827 3.78335 7.11662 3.07727 8.25158L13.9996 14.0002L24.9219 8.25158C24.2158 7.11662 22.9612 6.45827 20.5069 5.17027Z" fill="#009A49"/>
<path opacity="0.5" d="M24.9697 8.32976C24.9542 8.3034 24.9384 8.27732 24.9223 8.25146L14 14V25.6667C15.1017 25.6667 16.1258 25.1293 18.174 24.0544L20.5073 22.83C23.0176 21.5127 24.2727 20.854 24.9697 19.6704C25.6667 18.4868 25.6667 17.0139 25.6667 14.0683V13.9318C25.6667 10.9862 25.6667 9.51334 24.9697 8.32976Z" fill="#009A49"/>
</svg>
