<svg width="33" height="32" viewBox="0 0 33 32" fill="none" xmlns="http://www.w3.org/2000/svg">
<path d="M24.5003 9.33329V6.93329C24.5003 5.43982 24.5003 4.69308 24.2097 4.12265C23.954 3.62089 23.5461 3.21294 23.0443 2.95728C22.4739 2.66663 21.7271 2.66663 20.2337 2.66663H12.767C11.2735 2.66663 10.5268 2.66663 9.95635 2.95728C9.45459 3.21294 9.04664 3.62089 8.79098 4.12265C8.50033 4.69308 8.50033 5.43982 8.50033 6.93329V9.33329M8.50033 24C7.26036 24 6.64038 24 6.13172 23.8637C4.75135 23.4938 3.67316 22.4156 3.30329 21.0352C3.16699 20.5266 3.16699 19.9066 3.16699 18.6666V15.7333C3.16699 13.4931 3.16699 12.373 3.60297 11.5173C3.98646 10.7647 4.59838 10.1528 5.35103 9.76927C6.20668 9.33329 7.32678 9.33329 9.56699 9.33329H23.4337C25.6739 9.33329 26.794 9.33329 27.6496 9.76927C28.4023 10.1528 29.0142 10.7647 29.3977 11.5173C29.8337 12.373 29.8337 13.4931 29.8337 15.7333V18.6666C29.8337 19.9066 29.8337 20.5266 29.6974 21.0352C29.3275 22.4156 28.2493 23.4938 26.8689 23.8637C26.3603 24 25.7403 24 24.5003 24M20.5003 14H24.5003M12.767 29.3333H20.2337C21.7271 29.3333 22.4739 29.3333 23.0443 29.0426C23.5461 28.787 23.954 28.379 24.2097 27.8773C24.5003 27.3068 24.5003 26.5601 24.5003 25.0666V22.9333C24.5003 21.4398 24.5003 20.6931 24.2097 20.1227C23.954 19.6209 23.5461 19.2129 23.0443 18.9573C22.4739 18.6666 21.7271 18.6666 20.2337 18.6666H12.767C11.2735 18.6666 10.5268 18.6666 9.95635 18.9573C9.45459 19.2129 9.04664 19.6209 8.79098 20.1227C8.50033 20.6931 8.50033 21.4398 8.50033 22.9333V25.0666C8.50033 26.5601 8.50033 27.3068 8.79098 27.8773C9.04664 28.379 9.45459 28.787 9.95635 29.0426C10.5268 29.3333 11.2735 29.3333 12.767 29.3333Z" stroke="#00802F" stroke-width="1.4" stroke-linecap="round" stroke-linejoin="round"/>
</svg>
