<svg width="664" height="592" viewBox="0 0 664 592" fill="none" xmlns="http://www.w3.org/2000/svg">
<g filter="url(#filter0_ddd_4618_36696)">
<g clip-path="url(#clip0_4618_36696)">
<g filter="url(#filter1_d_4618_36696)">
<mask id="path-2-inside-1_4618_36696" fill="white">
<path fill-rule="evenodd" clip-rule="evenodd" d="M5.78223 23.2C5.78223 16.4794 5.78223 13.1191 7.09015 10.5521C8.24063 8.29417 10.0764 6.4584 12.3343 5.30792C14.9013 4 18.2616 4 24.9822 4H638.8C645.521 4 648.881 4 651.448 5.30792C653.706 6.4584 655.542 8.29417 656.692 10.5521C658 13.1191 658 16.4794 658 23.2V131.979C656.897 131.733 655.723 131.6 654.506 131.6C648.073 131.6 642.859 135.31 642.859 139.886C642.859 144.462 648.073 148.172 654.506 148.172C655.723 148.172 656.897 148.039 658 147.792V289.385C656.897 289.138 655.723 289.005 654.505 289.005C648.073 289.005 642.859 292.715 642.859 297.291C642.859 301.867 648.073 305.577 654.505 305.577C655.723 305.577 656.897 305.444 658 305.197V564.8C658 571.521 658 574.881 656.692 577.448C655.542 579.706 653.706 581.542 651.448 582.692C648.881 584 645.521 584 638.8 584H24.9822C18.2616 584 14.9013 584 12.3343 582.692C10.0764 581.542 8.24063 579.706 7.09015 577.448C5.78223 574.881 5.78223 571.521 5.78223 564.8V305.577C12.2142 305.577 17.4282 301.867 17.4282 297.291C17.4282 292.715 12.2142 289.006 5.78223 289.005V148.172H5.78242C12.2147 148.172 17.4292 144.462 17.4292 139.886C17.4292 135.31 12.2147 131.6 5.78242 131.6H5.78223V23.2Z"/>
</mask>
<path fill-rule="evenodd" clip-rule="evenodd" d="M5.78223 23.2C5.78223 16.4794 5.78223 13.1191 7.09015 10.5521C8.24063 8.29417 10.0764 6.4584 12.3343 5.30792C14.9013 4 18.2616 4 24.9822 4H638.8C645.521 4 648.881 4 651.448 5.30792C653.706 6.4584 655.542 8.29417 656.692 10.5521C658 13.1191 658 16.4794 658 23.2V131.979C656.897 131.733 655.723 131.6 654.506 131.6C648.073 131.6 642.859 135.31 642.859 139.886C642.859 144.462 648.073 148.172 654.506 148.172C655.723 148.172 656.897 148.039 658 147.792V289.385C656.897 289.138 655.723 289.005 654.505 289.005C648.073 289.005 642.859 292.715 642.859 297.291C642.859 301.867 648.073 305.577 654.505 305.577C655.723 305.577 656.897 305.444 658 305.197V564.8C658 571.521 658 574.881 656.692 577.448C655.542 579.706 653.706 581.542 651.448 582.692C648.881 584 645.521 584 638.8 584H24.9822C18.2616 584 14.9013 584 12.3343 582.692C10.0764 581.542 8.24063 579.706 7.09015 577.448C5.78223 574.881 5.78223 571.521 5.78223 564.8V305.577C12.2142 305.577 17.4282 301.867 17.4282 297.291C17.4282 292.715 12.2142 289.006 5.78223 289.005V148.172H5.78242C12.2147 148.172 17.4292 144.462 17.4292 139.886C17.4292 135.31 12.2147 131.6 5.78242 131.6H5.78223V23.2Z" fill="white"/>
<path d="M7.09015 10.5521L7.98115 11.0061L7.09015 10.5521ZM12.3343 5.30792L12.7883 6.19893L12.3343 5.30792ZM651.448 5.30792L651.902 4.41692V4.41691L651.448 5.30792ZM656.692 10.5521L655.801 11.0061V11.0061L656.692 10.5521ZM658 131.979L657.782 132.955L659 133.228V131.979H658ZM658 147.792H659V146.544L657.782 146.816L658 147.792ZM658 289.385L657.782 290.361L659 290.633V289.385H658ZM658 305.197H659V303.949L657.782 304.221L658 305.197ZM656.692 577.448L655.801 576.994L656.692 577.448ZM651.448 582.692L650.994 581.801L651.448 582.692ZM12.3343 582.692L12.7883 581.801H12.7883L12.3343 582.692ZM7.09015 577.448L6.19914 577.902H6.19914L7.09015 577.448ZM5.78223 305.577L5.78218 304.577L4.78223 304.577V305.577H5.78223ZM5.78223 289.005H4.78223V290.005L5.78218 290.005L5.78223 289.005ZM5.78223 148.172V147.172H4.78223V148.172H5.78223ZM5.78223 131.6H4.78223V132.6H5.78223V131.6ZM6.19914 10.0981C5.46138 11.5461 5.11758 13.1741 4.94904 15.237C4.78145 17.2882 4.78223 19.8562 4.78223 23.2H6.78223C6.78223 19.8232 6.783 17.3507 6.9424 15.3999C7.10083 13.4607 7.41099 12.1251 7.98115 11.0061L6.19914 10.0981ZM11.8804 4.41692C9.43424 5.66327 7.4455 7.65202 6.19914 10.0981L7.98115 11.0061C9.03576 8.93632 10.7185 7.25354 12.7883 6.19893L11.8804 4.41692ZM24.9822 3C21.6384 3 19.0704 2.99922 17.0192 3.16681C14.9564 3.33535 13.3283 3.67915 11.8804 4.41692L12.7883 6.19893C13.9073 5.62877 15.2429 5.31861 17.1821 5.16017C19.1329 5.00078 21.6054 5 24.9822 5V3ZM638.8 3H24.9822V5H638.8V3ZM651.902 4.41691C650.454 3.67915 648.826 3.33535 646.763 3.16681C644.712 2.99922 642.144 3 638.8 3V5C642.177 5 644.649 5.00078 646.6 5.16017C648.539 5.31861 649.875 5.62877 650.994 6.19893L651.902 4.41691ZM657.583 10.0981C656.337 7.65201 654.348 5.66327 651.902 4.41692L650.994 6.19893C653.064 7.25354 654.747 8.93633 655.801 11.0061L657.583 10.0981ZM659 23.2C659 19.8562 659.001 17.2882 658.833 15.237C658.665 13.1741 658.321 11.5461 657.583 10.0981L655.801 11.0061C656.371 12.1251 656.681 13.4607 656.84 15.3999C656.999 17.3507 657 19.8232 657 23.2H659ZM659 131.979V23.2H657V131.979H659ZM654.506 132.6C655.651 132.6 656.751 132.725 657.782 132.955L658.218 131.004C657.043 130.741 655.796 130.6 654.506 130.6V132.6ZM643.859 139.886C643.859 138.006 644.928 136.209 646.85 134.842C648.77 133.476 651.473 132.6 654.506 132.6V130.6C651.106 130.6 647.986 131.579 645.691 133.212C643.397 134.844 641.859 137.189 641.859 139.886H643.859ZM654.506 147.172C651.473 147.172 648.77 146.295 646.85 144.93C644.928 143.563 643.859 141.765 643.859 139.886H641.859C641.859 142.582 643.397 144.928 645.691 146.56C647.986 148.193 651.106 149.172 654.506 149.172V147.172ZM657.782 146.816C656.751 147.047 655.651 147.172 654.506 147.172V149.172C655.796 149.172 657.043 149.031 658.218 148.768L657.782 146.816ZM659 289.385V147.792H657V289.385H659ZM654.505 290.005C655.65 290.005 656.751 290.13 657.782 290.361L658.218 288.409C657.042 288.146 655.795 288.005 654.505 288.005V290.005ZM643.859 297.291C643.859 295.412 644.928 293.614 646.849 292.247C648.769 290.881 651.473 290.005 654.505 290.005V288.005C651.106 288.005 647.986 288.984 645.69 290.617C643.397 292.249 641.859 294.594 641.859 297.291H643.859ZM654.505 304.577C651.473 304.577 648.769 303.701 646.849 302.335C644.928 300.968 643.859 299.171 643.859 297.291H641.859C641.859 299.988 643.397 302.333 645.69 303.965C647.986 305.598 651.106 306.577 654.505 306.577V304.577ZM657.782 304.221C656.751 304.452 655.65 304.577 654.505 304.577V306.577C655.795 306.577 657.042 306.436 658.218 306.173L657.782 304.221ZM659 564.8V305.197H657V564.8H659ZM657.583 577.902C658.321 576.454 658.665 574.826 658.833 572.763C659.001 570.712 659 568.144 659 564.8H657C657 568.177 656.999 570.649 656.84 572.6C656.681 574.539 656.371 575.875 655.801 576.994L657.583 577.902ZM651.902 583.583C654.348 582.337 656.337 580.348 657.583 577.902L655.801 576.994C654.746 579.064 653.064 580.746 650.994 581.801L651.902 583.583ZM638.8 585C642.144 585 644.712 585.001 646.763 584.833C648.826 584.665 650.454 584.321 651.902 583.583L650.994 581.801C649.875 582.371 648.539 582.681 646.6 582.84C644.649 582.999 642.177 583 638.8 583V585ZM24.9822 585H638.8V583H24.9822V585ZM11.8804 583.583C13.3283 584.321 14.9564 584.665 17.0192 584.833C19.0704 585.001 21.6384 585 24.9822 585V583C21.6054 583 19.1329 582.999 17.1821 582.84C15.2429 582.681 13.9073 582.371 12.7883 581.801L11.8804 583.583ZM6.19914 577.902C7.44549 580.348 9.43424 582.337 11.8804 583.583L12.7883 581.801C10.7186 580.747 9.03577 579.064 7.98115 576.994L6.19914 577.902ZM4.78223 564.8C4.78223 568.144 4.78145 570.712 4.94904 572.763C5.11758 574.826 5.46138 576.454 6.19914 577.902L7.98116 576.994C7.41099 575.875 7.10083 574.539 6.9424 572.6C6.783 570.649 6.78223 568.177 6.78223 564.8H4.78223ZM4.78223 305.577V564.8H6.78223V305.577H4.78223ZM16.4282 297.291C16.4282 299.17 15.3591 300.968 13.4375 302.335C11.518 303.701 8.81465 304.577 5.78218 304.577L5.78227 306.577C9.18175 306.577 12.3014 305.598 14.5969 303.965C16.8903 302.333 18.4282 299.988 18.4282 297.291H16.4282ZM5.78218 290.005C8.81465 290.006 11.518 290.882 13.4375 292.247C15.3591 293.614 16.4282 295.412 16.4282 297.291H18.4282C18.4282 294.595 16.8903 292.249 14.5969 290.618C12.3014 288.984 9.18175 288.006 5.78227 288.005L5.78218 290.005ZM4.78223 148.172V289.005H6.78223V148.172H4.78223ZM5.78242 147.172H5.78223V149.172H5.78242V147.172ZM16.4292 139.886C16.4292 141.765 15.36 143.563 13.4382 144.93C11.5186 146.295 8.81507 147.172 5.78242 147.172V149.172C9.1821 149.172 12.3019 148.193 14.5976 146.56C16.8912 144.928 18.4292 142.582 18.4292 139.886H16.4292ZM5.78242 132.6C8.81507 132.6 11.5186 133.476 13.4382 134.842C15.36 136.209 16.4292 138.006 16.4292 139.886H18.4292C18.4292 137.189 16.8912 134.844 14.5976 133.212C12.3019 131.579 9.1821 130.6 5.78242 130.6V132.6ZM5.78223 132.6H5.78242V130.6H5.78223V132.6ZM4.78223 23.2V131.6H6.78223V23.2H4.78223Z" fill="#EEEEEE" mask="url(#path-2-inside-1_4618_36696)"/>
</g>
<g filter="url(#filter2_dii_4618_36696)">
<rect x="300.5" y="72" width="62" height="49" rx="6" fill="white" shape-rendering="crispEdges"/>
<g filter="url(#filter3_ii_4618_36696)">
<rect x="312.5" y="86" width="38" height="21" rx="1" fill="#009A49"/>
</g>
<g filter="url(#filter4_ii_4618_36696)">
<rect x="316.5" y="88.5" width="6" height="16" rx="1" fill="#00802F"/>
</g>
<g filter="url(#filter5_ii_4618_36696)">
<rect x="324.5" y="88.5" width="6" height="16" rx="1" fill="#00802F"/>
</g>
<g filter="url(#filter6_ii_4618_36696)">
<rect x="332.5" y="88.5" width="6" height="16" rx="1" fill="#00802F"/>
</g>
<g filter="url(#filter7_ii_4618_36696)">
<rect x="340.5" y="88.5" width="6" height="16" rx="1" fill="#00802F"/>
</g>
</g>
<path d="M257.195 159.3C253.375 159.3 250.035 156.54 250.035 151.92C250.035 147.3 253.495 144.52 257.175 144.52C260.775 144.52 262.915 146.64 263.555 149.12L261.295 149.88C260.875 148.16 259.555 146.78 257.175 146.78C254.835 146.78 252.495 148.48 252.495 151.92C252.495 155.24 254.775 157 257.195 157C259.575 157 260.935 155.48 261.415 153.88L263.615 154.6C262.975 157 260.815 159.3 257.195 159.3ZM271.801 157.92C271.321 158.8 270.181 159.28 269.041 159.28C266.721 159.28 265.361 157.56 265.361 155.4V149.26H267.681V154.98C267.681 156.18 268.241 157.2 269.641 157.2C270.981 157.2 271.681 156.3 271.681 155.02V149.26H274.001V157.22C274.001 158.02 274.061 158.64 274.101 159H271.881C271.841 158.78 271.801 158.32 271.801 157.92ZM276.144 156.36L278.164 155.8C278.244 156.68 278.904 157.46 280.144 157.46C281.104 157.46 281.604 156.94 281.604 156.34C281.604 155.82 281.244 155.42 280.464 155.26L279.024 154.94C277.304 154.56 276.404 153.44 276.404 152.1C276.404 150.4 277.964 148.96 279.984 148.96C282.704 148.96 283.584 150.72 283.744 151.68L281.784 152.24C281.704 151.68 281.284 150.78 279.984 150.78C279.164 150.78 278.584 151.3 278.584 151.9C278.584 152.42 278.964 152.8 279.564 152.92L281.044 153.22C282.884 153.62 283.844 154.74 283.844 156.18C283.844 157.66 282.644 159.3 280.164 159.3C277.344 159.3 276.264 157.46 276.144 156.36ZM289.085 146.28V149.26H291.105V151.32H289.085V155.84C289.085 156.7 289.465 157.06 290.325 157.06C290.645 157.06 291.025 157 291.125 156.98V158.9C290.985 158.96 290.545 159.12 289.705 159.12C287.905 159.12 286.785 158.04 286.785 156.22V151.32H284.985V149.26H285.485C286.525 149.26 286.985 148.6 286.985 147.74V146.28H289.085ZM297.671 157.22C299.111 157.22 300.391 156.16 300.391 154.12C300.391 152.1 299.111 151.06 297.671 151.06C296.251 151.06 294.951 152.1 294.951 154.12C294.951 156.14 296.251 157.22 297.671 157.22ZM297.671 148.96C300.591 148.96 302.731 151.14 302.731 154.12C302.731 157.12 300.591 159.3 297.671 159.3C294.771 159.3 292.631 157.12 292.631 154.12C292.631 151.14 294.771 148.96 297.671 148.96ZM307.273 159H304.973V149.26H307.193V150.5C307.753 149.5 308.973 148.98 310.073 148.98C311.353 148.98 312.473 149.56 312.993 150.7C313.753 149.42 314.893 148.98 316.153 148.98C317.913 148.98 319.593 150.1 319.593 152.68V159H317.353V153.06C317.353 151.92 316.773 151.06 315.473 151.06C314.253 151.06 313.453 152.02 313.453 153.22V159H311.173V153.06C311.173 151.94 310.613 151.06 309.293 151.06C308.053 151.06 307.273 151.98 307.273 153.22V159ZM324.054 153.06H328.834C328.794 151.92 328.034 150.9 326.434 150.9C324.974 150.9 324.134 152.02 324.054 153.06ZM329.094 155.6L331.054 156.22C330.534 157.92 328.994 159.3 326.654 159.3C324.014 159.3 321.674 157.38 321.674 154.08C321.674 151 323.954 148.96 326.414 148.96C329.414 148.96 331.174 150.94 331.174 154.02C331.174 154.4 331.134 154.72 331.114 154.76H323.994C324.054 156.24 325.214 157.3 326.654 157.3C328.054 157.3 328.774 156.56 329.094 155.6ZM339.091 149.2V151.56C338.831 151.52 338.571 151.5 338.331 151.5C336.531 151.5 335.711 152.54 335.711 154.36V159H333.391V149.26H335.651V150.82C336.111 149.76 337.191 149.14 338.471 149.14C338.751 149.14 338.991 149.18 339.091 149.2ZM353.309 159L350.329 153.4H348.569V159H346.149V144.82H351.589C354.329 144.82 356.029 146.72 356.029 149.12C356.029 151.14 354.809 152.68 352.829 153.16L356.029 159H353.309ZM348.569 151.28H351.149C352.629 151.28 353.589 150.42 353.589 149.12C353.589 147.8 352.629 146.94 351.149 146.94H348.569V151.28ZM359.679 153.06H364.459C364.419 151.92 363.659 150.9 362.059 150.9C360.599 150.9 359.759 152.02 359.679 153.06ZM364.719 155.6L366.679 156.22C366.159 157.92 364.619 159.3 362.279 159.3C359.639 159.3 357.299 157.38 357.299 154.08C357.299 151 359.579 148.96 362.039 148.96C365.039 148.96 366.799 150.94 366.799 154.02C366.799 154.4 366.759 154.72 366.739 154.76H359.619C359.679 156.24 360.839 157.3 362.279 157.3C363.679 157.3 364.399 156.56 364.719 155.6ZM373.256 151.1C371.836 151.1 370.576 152.16 370.576 154.12C370.576 156.08 371.836 157.18 373.296 157.18C374.816 157.18 375.516 156.12 375.736 155.38L377.776 156.12C377.316 157.64 375.856 159.3 373.296 159.3C370.436 159.3 368.256 157.08 368.256 154.12C368.256 151.12 370.436 148.96 373.236 148.96C375.856 148.96 377.296 150.6 377.696 152.16L375.616 152.92C375.396 152.06 374.736 151.1 373.256 151.1ZM381.358 153.06H386.138C386.098 151.92 385.338 150.9 383.738 150.9C382.278 150.9 381.438 152.02 381.358 153.06ZM386.398 155.6L388.358 156.22C387.838 157.92 386.298 159.3 383.958 159.3C381.318 159.3 378.978 157.38 378.978 154.08C378.978 151 381.258 148.96 383.718 148.96C386.718 148.96 388.478 150.94 388.478 154.02C388.478 154.4 388.438 154.72 388.418 154.76H381.298C381.358 156.24 382.518 157.3 383.958 157.3C385.358 157.3 386.078 156.56 386.398 155.6ZM392.995 159H390.695V149.26H392.995V159ZM390.335 145.84C390.335 145 391.015 144.32 391.835 144.32C392.675 144.32 393.355 145 393.355 145.84C393.355 146.68 392.675 147.34 391.835 147.34C391.015 147.34 390.335 146.68 390.335 145.84ZM398.288 162.8H395.988V149.26H398.228V150.58C398.708 149.74 399.828 149.04 401.328 149.04C404.208 149.04 405.828 151.24 405.828 154.12C405.828 157.04 404.048 159.24 401.248 159.24C399.848 159.24 398.788 158.64 398.288 157.9V162.8ZM403.508 154.12C403.508 152.3 402.448 151.1 400.888 151.1C399.368 151.1 398.268 152.3 398.268 154.12C398.268 155.98 399.368 157.18 400.888 157.18C402.428 157.18 403.508 155.98 403.508 154.12ZM410.94 146.28V149.26H412.96V151.32H410.94V155.84C410.94 156.7 411.32 157.06 412.18 157.06C412.5 157.06 412.88 157 412.98 156.98V158.9C412.84 158.96 412.4 159.12 411.56 159.12C409.76 159.12 408.64 158.04 408.64 156.22V151.32H406.84V149.26H407.34C408.38 149.26 408.84 148.6 408.84 147.74V146.28H410.94Z" fill="#2A2A2A"/>
<line x1="38" y1="198.5" x2="625" y2="198.5" stroke="#DCDEE0" stroke-dasharray="6 6"/>
<path d="M40.898 246H39.19V236.074H40.898V246ZM45.1959 237.096V239.182H46.6099V240.624H45.1959V243.788C45.1959 244.087 45.2659 244.306 45.4059 244.446C45.5459 244.577 45.7652 244.642 46.0639 244.642C46.2506 244.642 46.4372 244.623 46.6239 244.586V245.93C46.3812 246.033 46.0499 246.084 45.6299 246.084C44.9952 246.084 44.4959 245.907 44.1319 245.552C43.7679 245.188 43.5859 244.689 43.5859 244.054V240.624H42.3259V239.182H42.6759C43.0212 239.182 43.2826 239.084 43.4599 238.888C43.6372 238.692 43.7259 238.435 43.7259 238.118V237.096H45.1959ZM49.3442 241.842H52.6902C52.6715 241.413 52.5175 241.053 52.2282 240.764C51.9482 240.475 51.5422 240.33 51.0102 240.33C50.5248 240.33 50.1328 240.484 49.8342 240.792C49.5355 241.091 49.3722 241.441 49.3442 241.842ZM52.8722 243.62L54.2442 244.054C54.0482 244.679 53.6795 245.197 53.1382 245.608C52.6062 246.009 51.9482 246.21 51.1642 246.21C50.1935 246.21 49.3675 245.879 48.6862 245.216C48.0142 244.553 47.6782 243.667 47.6782 242.556C47.6782 241.511 48.0048 240.652 48.6582 239.98C49.3208 239.308 50.1002 238.972 50.9962 238.972C52.0415 238.972 52.8582 239.294 53.4462 239.938C54.0342 240.573 54.3282 241.431 54.3282 242.514C54.3282 242.803 54.3142 242.976 54.2862 243.032H49.3022C49.3208 243.545 49.5075 243.97 49.8622 244.306C50.2262 244.642 50.6602 244.81 51.1642 244.81C52.0415 244.81 52.6108 244.413 52.8722 243.62ZM57.4901 246H55.8801V239.182H57.4341V240.05C57.6207 239.714 57.9007 239.453 58.2741 239.266C58.6567 239.079 59.0487 238.986 59.4501 238.986C59.9074 238.986 60.3181 239.089 60.6821 239.294C61.0461 239.499 61.3167 239.798 61.4941 240.19C61.9701 239.387 62.7074 238.986 63.7061 238.986C64.3781 238.986 64.9474 239.205 65.4141 239.644C65.8807 240.083 66.1141 240.727 66.1141 241.576V246H64.5461V241.842C64.5461 241.422 64.4341 241.086 64.2101 240.834C63.9954 240.573 63.6687 240.442 63.2301 240.442C62.8101 240.442 62.4694 240.587 62.2081 240.876C61.9467 241.165 61.8161 241.525 61.8161 241.954V246H60.2201V241.842C60.2201 241.422 60.1081 241.086 59.8841 240.834C59.6694 240.573 59.3427 240.442 58.9041 240.442C58.4747 240.442 58.1294 240.587 57.8681 240.876C57.6161 241.156 57.4901 241.515 57.4901 241.954V246ZM80.0454 246H78.2954L73.3954 238.482V246H71.7154V236.074H73.8574L78.3654 243.116V236.074H80.0454V246ZM81.8195 244.152C81.8195 243.573 82.0061 243.111 82.3795 242.766C82.7621 242.411 83.2615 242.187 83.8775 242.094L85.6275 241.828C85.9635 241.781 86.1315 241.618 86.1315 241.338C86.1315 241.03 86.0241 240.783 85.8095 240.596C85.5948 240.4 85.2728 240.302 84.8435 240.302C84.4328 240.302 84.1061 240.419 83.8635 240.652C83.6208 240.876 83.4808 241.17 83.4435 241.534L81.9595 241.198C82.0248 240.582 82.3188 240.059 82.8415 239.63C83.3641 239.191 84.0268 238.972 84.8295 238.972C85.8188 238.972 86.5468 239.21 87.0135 239.686C87.4895 240.162 87.7275 240.773 87.7275 241.52V244.908C87.7275 245.356 87.7555 245.72 87.8115 246H86.2995C86.2528 245.86 86.2295 245.571 86.2295 245.132C85.7815 245.851 85.0815 246.21 84.1295 246.21C83.4388 246.21 82.8788 246.009 82.4495 245.608C82.0295 245.197 81.8195 244.712 81.8195 244.152ZM84.4375 244.936C84.9415 244.936 85.3475 244.801 85.6555 244.53C85.9728 244.25 86.1315 243.797 86.1315 243.172V242.864L84.3535 243.13C83.7468 243.233 83.4435 243.541 83.4435 244.054C83.4435 244.297 83.5321 244.507 83.7095 244.684C83.8868 244.852 84.1295 244.936 84.4375 244.936ZM91.3006 246H89.6906V239.182H91.2446V240.05C91.4313 239.714 91.7113 239.453 92.0846 239.266C92.4673 239.079 92.8593 238.986 93.2606 238.986C93.718 238.986 94.1286 239.089 94.4926 239.294C94.8566 239.499 95.1273 239.798 95.3046 240.19C95.7806 239.387 96.518 238.986 97.5166 238.986C98.1886 238.986 98.758 239.205 99.2246 239.644C99.6913 240.083 99.9246 240.727 99.9246 241.576V246H98.3566V241.842C98.3566 241.422 98.2446 241.086 98.0206 240.834C97.806 240.573 97.4793 240.442 97.0406 240.442C96.6206 240.442 96.28 240.587 96.0186 240.876C95.7573 241.165 95.6266 241.525 95.6266 241.954V246H94.0306V241.842C94.0306 241.422 93.9186 241.086 93.6946 240.834C93.48 240.573 93.1533 240.442 92.7146 240.442C92.2853 240.442 91.94 240.587 91.6786 240.876C91.4266 241.156 91.3006 241.515 91.3006 241.954V246ZM103.047 241.842H106.393C106.375 241.413 106.221 241.053 105.931 240.764C105.651 240.475 105.245 240.33 104.713 240.33C104.228 240.33 103.836 240.484 103.537 240.792C103.239 241.091 103.075 241.441 103.047 241.842ZM106.575 243.62L107.947 244.054C107.751 244.679 107.383 245.197 106.841 245.608C106.309 246.009 105.651 246.21 104.867 246.21C103.897 246.21 103.071 245.879 102.389 245.216C101.717 244.553 101.381 243.667 101.381 242.556C101.381 241.511 101.708 240.652 102.361 239.98C103.024 239.308 103.803 238.972 104.699 238.972C105.745 238.972 106.561 239.294 107.149 239.938C107.737 240.573 108.031 241.431 108.031 242.514C108.031 242.803 108.017 242.976 107.989 243.032H103.005C103.024 243.545 103.211 243.97 103.565 244.306C103.929 244.642 104.363 244.81 104.867 244.81C105.745 244.81 106.314 244.413 106.575 243.62Z" fill="#888888"/>
<path d="M46.672 284.232L45.264 284.728C45.1893 284.237 44.9493 283.795 44.544 283.4C44.1387 282.995 43.5787 282.792 42.864 282.792C42.2347 282.792 41.712 282.973 41.296 283.336C40.88 283.699 40.672 284.147 40.672 284.68C40.672 285.096 40.7947 285.448 41.04 285.736C41.296 286.024 41.6587 286.221 42.128 286.328L43.824 286.696C44.7627 286.899 45.488 287.283 46 287.848C46.512 288.403 46.768 289.08 46.768 289.88C46.768 290.797 46.4053 291.587 45.68 292.248C44.9547 292.909 44.0107 293.24 42.848 293.24C41.5787 293.24 40.5813 292.909 39.856 292.248C39.1413 291.576 38.7253 290.781 38.608 289.864L40.112 289.384C40.176 290.067 40.4427 290.643 40.912 291.112C41.3813 291.581 42.0213 291.816 42.832 291.816C43.5787 291.816 44.1547 291.645 44.56 291.304C44.9653 290.963 45.168 290.531 45.168 290.008C45.168 289.581 45.024 289.213 44.736 288.904C44.448 288.584 44.0267 288.365 43.472 288.248L41.856 287.896C41.0133 287.715 40.3413 287.357 39.84 286.824C39.3387 286.291 39.088 285.613 39.088 284.792C39.088 283.896 39.4507 283.112 40.176 282.44C40.912 281.757 41.7973 281.416 42.832 281.416C43.9947 281.416 44.8853 281.699 45.504 282.264C46.1227 282.829 46.512 283.485 46.672 284.232ZM50.1921 291.176C50.6615 291.656 51.2321 291.896 51.9041 291.896C52.5761 291.896 53.1415 291.656 53.6001 291.176C54.0695 290.685 54.3041 290.008 54.3041 289.144C54.3041 288.291 54.0695 287.624 53.6001 287.144C53.1415 286.653 52.5761 286.408 51.9041 286.408C51.2321 286.408 50.6615 286.653 50.1921 287.144C49.7335 287.624 49.5041 288.291 49.5041 289.144C49.5041 290.008 49.7335 290.685 50.1921 291.176ZM49.0721 286.232C49.8188 285.453 50.7628 285.064 51.9041 285.064C53.0455 285.064 53.9841 285.453 54.7201 286.232C55.4668 287 55.8401 287.971 55.8401 289.144C55.8401 290.328 55.4721 291.309 54.7361 292.088C54.0001 292.856 53.0561 293.24 51.9041 293.24C50.7521 293.24 49.8081 292.856 49.0721 292.088C48.3361 291.309 47.9681 290.328 47.9681 289.144C47.9681 287.971 48.3361 287 49.0721 286.232ZM59.2684 293H57.7644V281.416H59.2684V293ZM61.3469 290.936C61.3469 290.275 61.5602 289.747 61.9869 289.352C62.4135 288.947 62.9789 288.696 63.6829 288.6L65.7629 288.296C66.1575 288.243 66.3549 288.051 66.3549 287.72C66.3549 287.315 66.2162 286.984 65.9389 286.728C65.6615 286.472 65.2455 286.344 64.6909 286.344C64.1789 286.344 63.7735 286.488 63.4749 286.776C63.1762 287.053 63.0002 287.427 62.9469 287.896L61.5069 287.56C61.5815 286.824 61.9175 286.227 62.5149 285.768C63.1122 285.299 63.8269 285.064 64.6589 285.064C65.7469 285.064 66.5522 285.331 67.0749 285.864C67.5975 286.387 67.8589 287.059 67.8589 287.88V291.736C67.8589 292.195 67.8909 292.616 67.9549 293H66.4829C66.4295 292.68 66.4029 292.333 66.4029 291.96C66.1895 292.301 65.8749 292.6 65.4589 292.856C65.0535 293.112 64.5415 293.24 63.9229 293.24C63.1655 293.24 62.5469 293.016 62.0669 292.568C61.5869 292.109 61.3469 291.565 61.3469 290.936ZM64.1309 291.976C64.8029 291.976 65.3415 291.795 65.7469 291.432C66.1522 291.069 66.3549 290.493 66.3549 289.704V289.352L64.0029 289.704C63.6615 289.757 63.3895 289.88 63.1869 290.072C62.9842 290.264 62.8829 290.525 62.8829 290.856C62.8829 291.155 62.9949 291.416 63.2189 291.64C63.4535 291.864 63.7575 291.976 64.1309 291.976ZM73.4339 286.456C72.7832 286.456 72.2285 286.691 71.7699 287.16C71.3219 287.629 71.0979 288.291 71.0979 289.144C71.0979 289.987 71.3219 290.648 71.7699 291.128C72.2285 291.608 72.7885 291.848 73.4499 291.848C74.0899 291.848 74.5752 291.688 74.9059 291.368C75.2472 291.048 75.4765 290.68 75.5939 290.264L76.9219 290.84C76.7085 291.48 76.3032 292.04 75.7059 292.52C75.1192 293 74.3672 293.24 73.4499 293.24C72.3299 293.24 71.4019 292.851 70.6659 292.072C69.9299 291.293 69.5619 290.317 69.5619 289.144C69.5619 287.949 69.9299 286.973 70.6659 286.216C71.4019 285.448 72.3245 285.064 73.4339 285.064C74.3725 285.064 75.1299 285.304 75.7059 285.784C76.2925 286.264 76.6765 286.84 76.8579 287.512L75.4979 288.088C75.3805 287.64 75.1565 287.256 74.8259 286.936C74.4952 286.616 74.0312 286.456 73.4339 286.456ZM79.5841 288.36H83.7921C83.7708 287.784 83.5788 287.315 83.2161 286.952C82.8535 286.579 82.3415 286.392 81.6801 286.392C81.0828 286.392 80.5921 286.589 80.2081 286.984C79.8241 287.368 79.6161 287.827 79.5841 288.36ZM84.0161 290.36L85.3121 290.808C85.0881 291.523 84.6721 292.109 84.0641 292.568C83.4561 293.016 82.7201 293.24 81.8561 293.24C80.7788 293.24 79.8615 292.872 79.1041 292.136C78.3575 291.389 77.9841 290.387 77.9841 289.128C77.9841 287.955 78.3468 286.984 79.0721 286.216C79.7975 285.448 80.6615 285.064 81.6641 285.064C82.8268 285.064 83.7335 285.432 84.3841 286.168C85.0348 286.893 85.3601 287.869 85.3601 289.096C85.3601 289.288 85.3495 289.448 85.3281 289.576H79.5361C79.5468 290.259 79.7708 290.819 80.2081 291.256C80.6561 291.693 81.2055 291.912 81.8561 291.912C82.9548 291.912 83.6748 291.395 84.0161 290.36ZM97.312 293L94.72 288.36H93.024V293H91.44V281.656H95.712C96.7573 281.656 97.5947 281.981 98.224 282.632C98.864 283.272 99.184 284.072 99.184 285.032C99.184 285.853 98.9387 286.557 98.448 287.144C97.9573 287.72 97.2853 288.088 96.432 288.248L99.136 293H97.312ZM93.024 286.952H95.424C96.064 286.952 96.5813 286.781 96.976 286.44C97.3707 286.088 97.568 285.619 97.568 285.032C97.568 284.435 97.3707 283.96 96.976 283.608C96.5813 283.245 96.064 283.064 95.424 283.064H93.024V286.952ZM101.85 288.36H106.058C106.036 287.784 105.844 287.315 105.482 286.952C105.119 286.579 104.607 286.392 103.946 286.392C103.348 286.392 102.858 286.589 102.474 286.984C102.09 287.368 101.882 287.827 101.85 288.36ZM106.282 290.36L107.578 290.808C107.354 291.523 106.938 292.109 106.33 292.568C105.722 293.016 104.986 293.24 104.122 293.24C103.044 293.24 102.127 292.872 101.37 292.136C100.623 291.389 100.25 290.387 100.25 289.128C100.25 287.955 100.612 286.984 101.338 286.216C102.063 285.448 102.927 285.064 103.93 285.064C105.092 285.064 105.999 285.432 106.65 286.168C107.3 286.893 107.626 287.869 107.626 289.096C107.626 289.288 107.615 289.448 107.594 289.576H101.802C101.812 290.259 102.036 290.819 102.474 291.256C102.922 291.693 103.471 291.912 104.122 291.912C105.22 291.912 105.94 291.395 106.282 290.36ZM112.778 286.456C112.127 286.456 111.572 286.691 111.114 287.16C110.666 287.629 110.442 288.291 110.442 289.144C110.442 289.987 110.666 290.648 111.114 291.128C111.572 291.608 112.132 291.848 112.794 291.848C113.434 291.848 113.919 291.688 114.25 291.368C114.591 291.048 114.82 290.68 114.938 290.264L116.266 290.84C116.052 291.48 115.647 292.04 115.05 292.52C114.463 293 113.711 293.24 112.794 293.24C111.674 293.24 110.746 292.851 110.01 292.072C109.274 291.293 108.906 290.317 108.906 289.144C108.906 287.949 109.274 286.973 110.01 286.216C110.746 285.448 111.668 285.064 112.778 285.064C113.716 285.064 114.474 285.304 115.05 285.784C115.636 286.264 116.02 286.84 116.202 287.512L114.842 288.088C114.724 287.64 114.5 287.256 114.17 286.936C113.839 286.616 113.375 286.456 112.778 286.456ZM119.534 293H118.03V281.416H119.534V293ZM123.581 293H122.093V285.304H123.581V293ZM122.061 283.16C121.858 282.947 121.757 282.691 121.757 282.392C121.757 282.093 121.858 281.837 122.061 281.624C122.274 281.411 122.53 281.304 122.829 281.304C123.127 281.304 123.383 281.411 123.597 281.624C123.81 281.827 123.917 282.083 123.917 282.392C123.917 282.691 123.81 282.947 123.597 283.16C123.383 283.363 123.127 283.464 122.829 283.464C122.53 283.464 122.274 283.363 122.061 283.16ZM127.643 288.552V293H126.139V285.304H127.611V286.408C128.123 285.523 128.913 285.08 129.979 285.08C130.865 285.08 131.542 285.363 132.011 285.928C132.491 286.493 132.731 287.224 132.731 288.12V293H131.227V288.376C131.227 287.085 130.63 286.44 129.435 286.44C128.87 286.44 128.427 286.643 128.107 287.048C127.798 287.443 127.643 287.944 127.643 288.552ZM136.1 288.36H140.308C140.286 287.784 140.094 287.315 139.732 286.952C139.369 286.579 138.857 286.392 138.196 286.392C137.598 286.392 137.108 286.589 136.724 286.984C136.34 287.368 136.132 287.827 136.1 288.36ZM140.532 290.36L141.828 290.808C141.604 291.523 141.188 292.109 140.58 292.568C139.972 293.016 139.236 293.24 138.372 293.24C137.294 293.24 136.377 292.872 135.62 292.136C134.873 291.389 134.5 290.387 134.5 289.128C134.5 287.955 134.862 286.984 135.588 286.216C136.313 285.448 137.177 285.064 138.18 285.064C139.342 285.064 140.249 285.432 140.9 286.168C141.55 286.893 141.876 287.869 141.876 289.096C141.876 289.288 141.865 289.448 141.844 289.576H136.052C136.062 290.259 136.286 290.819 136.724 291.256C137.172 291.693 137.721 291.912 138.372 291.912C139.47 291.912 140.19 291.395 140.532 290.36ZM148.068 285.224V286.824C147.844 286.792 147.625 286.776 147.412 286.776C146.004 286.776 145.3 287.565 145.3 289.144V293H143.796V285.304H145.268V286.648C145.737 285.667 146.505 285.176 147.572 285.176C147.742 285.176 147.908 285.192 148.068 285.224Z" fill="#2A2A2A"/>
<path d="M48.692 333.272H44.534V344H42.374V333.272H38.234V331.238H48.692V333.272ZM52.4305 342.398C53.7265 342.398 54.8785 341.444 54.8785 339.608C54.8785 337.79 53.7265 336.854 52.4305 336.854C51.1525 336.854 49.9825 337.79 49.9825 339.608C49.9825 341.426 51.1525 342.398 52.4305 342.398ZM52.4305 334.964C55.0585 334.964 56.9845 336.926 56.9845 339.608C56.9845 342.308 55.0585 344.27 52.4305 344.27C49.8205 344.27 47.8945 342.308 47.8945 339.608C47.8945 336.926 49.8205 334.964 52.4305 334.964ZM61.5956 332.552V335.234H63.4136V337.088H61.5956V341.156C61.5956 341.93 61.9376 342.254 62.7116 342.254C62.9996 342.254 63.3416 342.2 63.4316 342.182V343.91C63.3056 343.964 62.9096 344.108 62.1536 344.108C60.5336 344.108 59.5256 343.136 59.5256 341.498V337.088H57.9056V335.234H58.3556C59.2916 335.234 59.7056 334.64 59.7056 333.866V332.552H61.5956ZM65.0366 341.624C65.0366 340.058 66.1886 339.194 67.6826 338.978L69.9326 338.636C70.4366 338.564 70.5806 338.312 70.5806 338.006C70.5806 337.268 70.0766 336.674 68.9246 336.674C67.8266 336.674 67.2146 337.376 67.1246 338.258L65.2166 337.826C65.3786 336.314 66.7466 334.964 68.9066 334.964C71.6066 334.964 72.6326 336.494 72.6326 338.24V342.596C72.6326 343.388 72.7226 343.91 72.7406 344H70.7966C70.7786 343.946 70.7066 343.586 70.7066 342.884C70.2926 343.55 69.4286 344.27 68.0066 344.27C66.1706 344.27 65.0366 343.01 65.0366 341.624ZM68.4026 342.632C69.5726 342.632 70.5806 342.074 70.5806 340.364V339.968L68.2946 340.31C67.6466 340.418 67.1246 340.778 67.1246 341.498C67.1246 342.092 67.5746 342.632 68.4026 342.632ZM77.2446 344H75.1566V330.968H77.2446V344Z" fill="#2A2A2A"/>
<path d="M304.549 243.802C304.073 242.999 303.835 242.075 303.835 241.03C303.835 239.985 304.073 239.065 304.549 238.272C305.034 237.469 305.655 236.867 306.411 236.466C307.167 236.065 307.988 235.864 308.875 235.864C309.762 235.864 310.583 236.065 311.339 236.466C312.095 236.867 312.716 237.469 313.201 238.272C313.686 239.065 313.929 239.985 313.929 241.03C313.929 242.439 313.5 243.62 312.641 244.572L313.817 245.888L312.683 246.854L311.465 245.524C310.681 245.981 309.818 246.21 308.875 246.21C307.988 246.21 307.167 246.009 306.411 245.608C305.655 245.207 305.034 244.605 304.549 243.802ZM306.537 238.398C305.884 239.023 305.557 239.901 305.557 241.03C305.557 242.159 305.884 243.041 306.537 243.676C307.19 244.301 307.97 244.614 308.875 244.614C309.426 244.614 309.92 244.507 310.359 244.292L308.721 242.472L309.869 241.492L311.521 243.326C311.978 242.701 312.207 241.935 312.207 241.03C312.207 239.901 311.876 239.023 311.213 238.398C310.56 237.763 309.78 237.446 308.875 237.446C307.97 237.446 307.19 237.763 306.537 238.398ZM319.973 245.244C319.815 245.543 319.553 245.776 319.189 245.944C318.835 246.112 318.452 246.196 318.041 246.196C317.248 246.196 316.618 245.939 316.151 245.426C315.694 244.913 315.465 244.264 315.465 243.48V239.182H317.089V243.186C317.089 243.643 317.201 244.017 317.425 244.306C317.649 244.595 317.995 244.74 318.461 244.74C318.919 244.74 319.269 244.6 319.511 244.32C319.763 244.04 319.889 243.671 319.889 243.214V239.182H321.513V244.754C321.513 245.165 321.537 245.58 321.583 246H320.029C319.992 245.795 319.973 245.543 319.973 245.244ZM323.195 244.152C323.195 243.573 323.382 243.111 323.755 242.766C324.138 242.411 324.637 242.187 325.253 242.094L327.003 241.828C327.339 241.781 327.507 241.618 327.507 241.338C327.507 241.03 327.4 240.783 327.185 240.596C326.971 240.4 326.649 240.302 326.219 240.302C325.809 240.302 325.482 240.419 325.239 240.652C324.997 240.876 324.857 241.17 324.819 241.534L323.335 241.198C323.401 240.582 323.695 240.059 324.217 239.63C324.74 239.191 325.403 238.972 326.205 238.972C327.195 238.972 327.923 239.21 328.389 239.686C328.865 240.162 329.103 240.773 329.103 241.52V244.908C329.103 245.356 329.131 245.72 329.187 246H327.675C327.629 245.86 327.605 245.571 327.605 245.132C327.157 245.851 326.457 246.21 325.505 246.21C324.815 246.21 324.255 246.009 323.825 245.608C323.405 245.197 323.195 244.712 323.195 244.152ZM325.813 244.936C326.317 244.936 326.723 244.801 327.031 244.53C327.349 244.25 327.507 243.797 327.507 243.172V242.864L325.729 243.13C325.123 243.233 324.819 243.541 324.819 244.054C324.819 244.297 324.908 244.507 325.085 244.684C325.263 244.852 325.505 244.936 325.813 244.936ZM332.691 242.066V246H331.067V239.182H332.649V240.092C332.863 239.719 333.148 239.443 333.503 239.266C333.867 239.079 334.254 238.986 334.665 238.986C335.467 238.986 336.079 239.238 336.499 239.742C336.919 240.246 337.129 240.895 337.129 241.688V246H335.505V241.968C335.505 241.511 335.393 241.147 335.169 240.876C334.945 240.596 334.59 240.456 334.105 240.456C333.657 240.456 333.307 240.61 333.055 240.918C332.812 241.217 332.691 241.599 332.691 242.066ZM341.164 237.096V239.182H342.578V240.624H341.164V243.788C341.164 244.087 341.234 244.306 341.374 244.446C341.514 244.577 341.733 244.642 342.032 244.642C342.218 244.642 342.405 244.623 342.592 244.586V245.93C342.349 246.033 342.018 246.084 341.598 246.084C340.963 246.084 340.464 245.907 340.1 245.552C339.736 245.188 339.554 244.689 339.554 244.054V240.624H338.294V239.182H338.644C338.989 239.182 339.25 239.084 339.428 238.888C339.605 238.692 339.694 238.435 339.694 238.118V237.096H341.164ZM345.856 246H344.246V239.182H345.856V246ZM344.302 237.53C344.097 237.325 343.994 237.077 343.994 236.788C343.994 236.499 344.097 236.251 344.302 236.046C344.508 235.831 344.755 235.724 345.044 235.724C345.343 235.724 345.595 235.827 345.8 236.032C346.006 236.237 346.108 236.489 346.108 236.788C346.108 237.077 346.006 237.325 345.8 237.53C345.595 237.735 345.343 237.838 345.044 237.838C344.755 237.838 344.508 237.735 344.302 237.53ZM350.009 237.096V239.182H351.423V240.624H350.009V243.788C350.009 244.087 350.079 244.306 350.219 244.446C350.359 244.577 350.579 244.642 350.877 244.642C351.064 244.642 351.251 244.623 351.437 244.586V245.93C351.195 246.033 350.863 246.084 350.443 246.084C349.809 246.084 349.309 245.907 348.945 245.552C348.581 245.188 348.399 244.689 348.399 244.054V240.624H347.139V239.182H347.489C347.835 239.182 348.096 239.084 348.273 238.888C348.451 238.692 348.539 238.435 348.539 238.118V237.096H350.009ZM355.273 248.758H353.537L355.175 245.188L352.263 239.182H354.097L356.057 243.494L357.891 239.182H359.613L355.273 248.758Z" fill="#888888"/>
<path d="M333.128 293H331.592V285.688H329.08V284.584C329.784 284.573 330.376 284.392 330.856 284.04C331.336 283.677 331.634 283.208 331.752 282.632H333.128V293Z" fill="#2A2A2A"/>
<path d="M333.57 344H331.446V336.008H328.62V334.532C330.294 334.496 331.446 333.56 331.698 332.336H333.57V344Z" fill="#2A2A2A"/>
<path d="M578.628 238.398L577.116 238.874C577.018 238.258 576.5 237.348 575.17 237.348C574.162 237.348 573.462 238.02 573.462 238.776C573.462 239.406 573.854 239.882 574.624 240.05L576.052 240.344C577.802 240.694 578.74 241.8 578.74 243.2C578.74 244.74 577.494 246.21 575.226 246.21C572.706 246.21 571.544 244.586 571.39 243.158L572.958 242.71C573.056 243.746 573.798 244.698 575.226 244.698C576.416 244.698 577.032 244.096 577.032 243.326C577.032 242.682 576.556 242.164 575.702 241.982L574.302 241.688C572.79 241.38 571.782 240.386 571.782 238.902C571.782 237.236 573.308 235.864 575.156 235.864C577.494 235.864 578.404 237.292 578.628 238.398ZM584.537 245.244C584.201 245.86 583.403 246.196 582.605 246.196C580.981 246.196 580.029 244.992 580.029 243.48V239.182H581.653V243.186C581.653 244.026 582.045 244.74 583.025 244.74C583.963 244.74 584.453 244.11 584.453 243.214V239.182H586.077V244.754C586.077 245.314 586.119 245.748 586.147 246H584.593C584.565 245.846 584.537 245.524 584.537 245.244ZM589.761 246H588.179V235.864H589.775V240.022C590.083 239.49 590.867 239 591.917 239C593.961 239 595.067 240.554 595.067 242.556C595.067 244.614 593.849 246.168 591.861 246.168C590.895 246.168 590.153 245.748 589.761 245.09V246ZM593.429 242.57C593.429 241.212 592.673 240.442 591.595 240.442C590.559 240.442 589.761 241.212 589.761 242.57C589.761 243.914 590.559 244.726 591.595 244.726C592.659 244.726 593.429 243.914 593.429 242.57ZM598.645 237.096V239.182H600.059V240.624H598.645V243.788C598.645 244.39 598.911 244.642 599.513 244.642C599.737 244.642 600.003 244.6 600.073 244.586V245.93C599.975 245.972 599.667 246.084 599.079 246.084C597.819 246.084 597.035 245.328 597.035 244.054V240.624H595.775V239.182H596.125C596.853 239.182 597.175 238.72 597.175 238.118V237.096H598.645ZM604.655 244.754C605.663 244.754 606.559 244.012 606.559 242.584C606.559 241.17 605.663 240.442 604.655 240.442C603.661 240.442 602.751 241.17 602.751 242.584C602.751 243.998 603.661 244.754 604.655 244.754ZM604.655 238.972C606.699 238.972 608.197 240.498 608.197 242.584C608.197 244.684 606.699 246.21 604.655 246.21C602.625 246.21 601.127 244.684 601.127 242.584C601.127 240.498 602.625 238.972 604.655 238.972ZM611.784 237.096V239.182H613.198V240.624H611.784V243.788C611.784 244.39 612.05 244.642 612.652 244.642C612.876 244.642 613.142 244.6 613.212 244.586V245.93C613.114 245.972 612.806 246.084 612.218 246.084C610.958 246.084 610.174 245.328 610.174 244.054V240.624H608.914V239.182H609.264C609.992 239.182 610.314 238.72 610.314 238.118V237.096H611.784ZM614.46 244.152C614.46 242.934 615.356 242.262 616.518 242.094L618.268 241.828C618.66 241.772 618.772 241.576 618.772 241.338C618.772 240.764 618.38 240.302 617.484 240.302C616.63 240.302 616.154 240.848 616.084 241.534L614.6 241.198C614.726 240.022 615.79 238.972 617.47 238.972C619.57 238.972 620.368 240.162 620.368 241.52V244.908C620.368 245.524 620.438 245.93 620.452 246H618.94C618.926 245.958 618.87 245.678 618.87 245.132C618.548 245.65 617.876 246.21 616.77 246.21C615.342 246.21 614.46 245.23 614.46 244.152ZM617.078 244.936C617.988 244.936 618.772 244.502 618.772 243.172V242.864L616.994 243.13C616.49 243.214 616.084 243.494 616.084 244.054C616.084 244.516 616.434 244.936 617.078 244.936ZM623.955 246H622.331V235.864H623.955V246Z" fill="#888888"/>
<path d="M560.002 293V288.888H558.754V287.864H560.002V286.552H558.754V285.528H560.002V281.576H561.666L563.186 285.528H565.074V281.576H566.338V285.528H567.586V286.552H566.338V287.864H567.586V288.888H566.338V293H564.658L563.138 288.888H561.25V293H560.002ZM561.25 287.864H562.754L562.274 286.552H561.218L561.25 287.864ZM565.074 290.744H565.138L565.09 288.888H564.418L565.074 290.744ZM561.218 285.528H561.89L561.218 283.544H561.154L561.218 285.528ZM564.034 287.864H565.106L565.074 286.552H563.554L564.034 287.864ZM572.198 293H570.662V285.688H568.15V284.584C568.854 284.573 569.446 284.392 569.926 284.04C570.406 283.677 570.705 283.208 570.822 282.632H572.198V293ZM573.951 290.184L575.455 289.736C575.497 290.376 575.732 290.893 576.159 291.288C576.596 291.683 577.14 291.88 577.791 291.88C578.42 291.88 578.948 291.688 579.375 291.304C579.801 290.92 580.015 290.413 580.015 289.784C580.015 289.101 579.801 288.573 579.375 288.2C578.948 287.827 578.415 287.64 577.775 287.64C576.996 287.64 576.367 287.891 575.887 288.392C575.737 288.339 575.492 288.243 575.151 288.104C574.809 287.965 574.543 287.859 574.351 287.784L575.695 282.632H581.167V284.072H576.735L575.967 287.048C576.425 286.536 577.129 286.28 578.079 286.28C579.113 286.28 579.956 286.589 580.607 287.208C581.268 287.827 581.599 288.664 581.599 289.72C581.599 290.723 581.247 291.565 580.543 292.248C579.839 292.92 578.921 293.256 577.791 293.256C576.724 293.256 575.833 292.957 575.119 292.36C574.415 291.763 574.025 291.037 573.951 290.184ZM590.556 282.968L590.076 284.248C589.564 283.949 588.946 283.8 588.22 283.8C587.164 283.8 586.306 284.147 585.644 284.84C584.994 285.533 584.636 286.424 584.572 287.512C584.807 287.128 585.159 286.808 585.628 286.552C586.108 286.296 586.668 286.168 587.308 286.168C588.364 286.168 589.218 286.483 589.868 287.112C590.53 287.741 590.86 288.605 590.86 289.704C590.86 290.781 590.487 291.64 589.74 292.28C588.994 292.92 588.087 293.24 587.02 293.24C585.911 293.24 584.956 292.84 584.156 292.04C583.367 291.229 582.972 290.029 582.972 288.44C582.972 286.563 583.474 285.085 584.476 284.008C585.479 282.931 586.759 282.392 588.316 282.392C589.266 282.392 590.012 282.584 590.556 282.968ZM584.796 289.704C584.796 290.355 585.02 290.883 585.468 291.288C585.916 291.683 586.439 291.88 587.036 291.88C587.666 291.88 588.194 291.683 588.62 291.288C589.058 290.893 589.276 290.365 589.276 289.704C589.276 289.032 589.058 288.499 588.62 288.104C588.194 287.709 587.666 287.512 587.036 287.512C586.407 287.512 585.874 287.709 585.436 288.104C585.01 288.499 584.796 289.032 584.796 289.704ZM592.401 291.976C592.401 291.688 592.513 291.437 592.737 291.224C592.961 291.011 593.239 290.904 593.569 290.904C593.932 290.904 594.236 291.037 594.481 291.304C594.737 291.571 594.865 291.944 594.865 292.424C594.865 293.384 594.62 294.125 594.129 294.648C593.639 295.171 593.095 295.469 592.497 295.544V294.712C592.881 294.627 593.196 294.413 593.441 294.072C593.687 293.741 593.815 293.379 593.825 292.984C593.751 293.037 593.633 293.064 593.473 293.064C593.164 293.064 592.908 292.968 592.705 292.776C592.503 292.573 592.401 292.307 592.401 291.976ZM598.936 284.456C598.328 285.096 598.024 286.216 598.024 287.816C598.024 289.416 598.328 290.536 598.936 291.176C599.363 291.624 599.912 291.848 600.584 291.848C601.256 291.848 601.805 291.624 602.232 291.176C602.84 290.536 603.144 289.416 603.144 287.816C603.144 286.216 602.84 285.096 602.232 284.456C601.805 284.008 601.256 283.784 600.584 283.784C599.912 283.784 599.363 284.008 598.936 284.456ZM597.4 291.576C596.781 290.659 596.472 289.405 596.472 287.816C596.472 286.227 596.781 284.973 597.4 284.056C598.136 282.947 599.197 282.392 600.584 282.392C601.971 282.392 603.032 282.947 603.768 284.056C604.387 284.973 604.696 286.227 604.696 287.816C604.696 289.405 604.387 290.659 603.768 291.576C603.032 292.685 601.971 293.24 600.584 293.24C599.197 293.24 598.136 292.685 597.4 291.576ZM608.686 284.456C608.078 285.096 607.774 286.216 607.774 287.816C607.774 289.416 608.078 290.536 608.686 291.176C609.113 291.624 609.662 291.848 610.334 291.848C611.006 291.848 611.555 291.624 611.982 291.176C612.59 290.536 612.894 289.416 612.894 287.816C612.894 286.216 612.59 285.096 611.982 284.456C611.555 284.008 611.006 283.784 610.334 283.784C609.662 283.784 609.113 284.008 608.686 284.456ZM607.15 291.576C606.531 290.659 606.222 289.405 606.222 287.816C606.222 286.227 606.531 284.973 607.15 284.056C607.886 282.947 608.947 282.392 610.334 282.392C611.721 282.392 612.782 282.947 613.518 284.056C614.137 284.973 614.446 286.227 614.446 287.816C614.446 289.405 614.137 290.659 613.518 291.576C612.782 292.685 611.721 293.24 610.334 293.24C608.947 293.24 607.886 292.685 607.15 291.576ZM618.436 284.456C617.828 285.096 617.524 286.216 617.524 287.816C617.524 289.416 617.828 290.536 618.436 291.176C618.863 291.624 619.412 291.848 620.084 291.848C620.756 291.848 621.305 291.624 621.732 291.176C622.34 290.536 622.644 289.416 622.644 287.816C622.644 286.216 622.34 285.096 621.732 284.456C621.305 284.008 620.756 283.784 620.084 283.784C619.412 283.784 618.863 284.008 618.436 284.456ZM616.9 291.576C616.281 290.659 615.972 289.405 615.972 287.816C615.972 286.227 616.281 284.973 616.9 284.056C617.636 282.947 618.697 282.392 620.084 282.392C621.471 282.392 622.532 282.947 623.268 284.056C623.887 284.973 624.196 286.227 624.196 287.816C624.196 289.405 623.887 290.659 623.268 291.576C622.532 292.685 621.471 293.24 620.084 293.24C618.697 293.24 617.636 292.685 616.9 291.576Z" fill="#2A2A2A"/>
<path d="M550.77 344V339.374H549.366V338.222H550.77V336.746H549.366V335.594H550.77V331.148H552.642L554.352 335.594H556.476V331.148H557.898V335.594H559.302V336.746H557.898V338.222H559.302V339.374H557.898V344H556.008L554.298 339.374H552.174V344H550.77ZM552.174 338.222H553.866L553.326 336.746H552.138L552.174 338.222ZM556.476 341.462H556.548L556.494 339.374H555.738L556.476 341.462ZM552.138 335.594H552.894L552.138 333.362H552.066L552.138 335.594ZM555.306 338.222H556.512L556.476 336.746H554.766L555.306 338.222ZM564.94 344H562.816V336.008H559.99V334.532C561.664 334.496 562.816 333.56 563.068 332.336H564.94V344ZM566.918 340.778L568.952 340.256C569.042 341.498 569.96 342.434 571.31 342.434C572.534 342.434 573.524 341.606 573.524 340.31C573.524 338.87 572.462 338.15 571.274 338.15C570.446 338.15 569.744 338.492 569.33 338.96L567.296 338.222L568.736 332.336H575.126V334.226H570.194L569.474 337.178C569.978 336.656 570.878 336.368 571.706 336.368C574.028 336.368 575.702 337.808 575.702 340.256C575.702 342.452 574.01 344.288 571.31 344.288C568.79 344.288 567.062 342.614 566.918 340.778ZM585.797 332.642L585.185 334.406C584.753 334.172 584.141 333.938 583.187 333.938C580.991 333.938 579.407 335.396 579.209 337.664C579.821 336.728 580.937 336.278 582.179 336.278C584.501 336.278 586.139 337.826 586.139 340.22C586.139 342.65 584.159 344.27 581.711 344.27C578.741 344.27 577.049 341.84 577.049 338.852C577.049 334.622 579.695 332.066 583.313 332.066C584.393 332.066 585.293 332.318 585.797 332.642ZM579.443 340.256C579.443 341.588 580.523 342.434 581.711 342.434C582.935 342.434 583.979 341.606 583.979 340.256C583.979 338.888 582.935 338.078 581.711 338.078C580.487 338.078 579.443 338.888 579.443 340.256ZM587.727 342.686C587.727 341.93 588.375 341.318 589.221 341.318C590.175 341.318 590.859 342.074 590.859 343.226C590.859 345.746 589.149 346.808 587.925 346.97V345.908C588.753 345.728 589.509 344.9 589.527 343.964C589.455 344 589.329 344.054 589.095 344.054C588.303 344.054 587.727 343.514 587.727 342.686ZM594.624 338.168C594.624 339.644 594.894 340.778 595.452 341.498C595.848 342.02 596.406 342.362 597.252 342.362C598.098 342.362 598.638 342.02 599.052 341.498C599.61 340.778 599.862 339.644 599.862 338.168C599.862 336.692 599.61 335.558 599.052 334.838C598.638 334.316 598.098 333.974 597.252 333.974C596.406 333.974 595.848 334.316 595.452 334.838C594.876 335.558 594.624 336.692 594.624 338.168ZM592.482 338.168C592.482 336.62 592.734 335.162 593.526 333.974C594.282 332.84 595.506 332.066 597.252 332.066C598.998 332.066 600.204 332.84 600.96 333.974C601.752 335.162 602.004 336.62 602.004 338.168C602.004 339.716 601.752 341.174 600.96 342.362C600.204 343.496 598.998 344.27 597.252 344.27C595.506 344.27 594.282 343.496 593.526 342.362C592.734 341.174 592.482 339.716 592.482 338.168ZM605.716 338.168C605.716 339.644 605.986 340.778 606.544 341.498C606.94 342.02 607.498 342.362 608.344 342.362C609.19 342.362 609.73 342.02 610.144 341.498C610.702 340.778 610.954 339.644 610.954 338.168C610.954 336.692 610.702 335.558 610.144 334.838C609.73 334.316 609.19 333.974 608.344 333.974C607.498 333.974 606.94 334.316 606.544 334.838C605.968 335.558 605.716 336.692 605.716 338.168ZM603.574 338.168C603.574 336.62 603.826 335.162 604.618 333.974C605.374 332.84 606.598 332.066 608.344 332.066C610.09 332.066 611.296 332.84 612.052 333.974C612.844 335.162 613.096 336.62 613.096 338.168C613.096 339.716 612.844 341.174 612.052 342.362C611.296 343.496 610.09 344.27 608.344 344.27C606.598 344.27 605.374 343.496 604.618 342.362C603.826 341.174 603.574 339.716 603.574 338.168ZM616.807 338.168C616.807 339.644 617.077 340.778 617.635 341.498C618.031 342.02 618.589 342.362 619.435 342.362C620.281 342.362 620.821 342.02 621.235 341.498C621.793 340.778 622.045 339.644 622.045 338.168C622.045 336.692 621.793 335.558 621.235 334.838C620.821 334.316 620.281 333.974 619.435 333.974C618.589 333.974 618.031 334.316 617.635 334.838C617.059 335.558 616.807 336.692 616.807 338.168ZM614.665 338.168C614.665 336.62 614.917 335.162 615.709 333.974C616.465 332.84 617.689 332.066 619.435 332.066C621.181 332.066 622.387 332.84 623.143 333.974C623.935 335.162 624.187 336.62 624.187 338.168C624.187 339.716 623.935 341.174 623.143 342.362C622.387 343.496 621.181 344.27 619.435 344.27C617.689 344.27 616.465 343.496 615.709 342.362C614.917 341.174 614.665 339.716 614.665 338.168Z" fill="#2A2A2A"/>
<line x1="38" y1="382.5" x2="625" y2="382.5" stroke="#DCDEE0" stroke-dasharray="6 6"/>
</g>
</g>
<defs>
<filter id="filter0_ddd_4618_36696" x="0" y="-1" width="664" height="594" filterUnits="userSpaceOnUse" color-interpolation-filters="sRGB">
<feFlood flood-opacity="0" result="BackgroundImageFix"/>
<feColorMatrix in="SourceAlpha" type="matrix" values="0 0 0 0 0 0 0 0 0 0 0 0 0 0 0 0 0 0 127 0" result="hardAlpha"/>
<feMorphology radius="2" operator="dilate" in="SourceAlpha" result="effect1_dropShadow_4618_36696"/>
<feOffset dy="1"/>
<feGaussianBlur stdDeviation="1.5"/>
<feColorMatrix type="matrix" values="0 0 0 0 0.196078 0 0 0 0 0.278431 0 0 0 0 0.360784 0 0 0 0.02 0"/>
<feBlend mode="normal" in2="BackgroundImageFix" result="effect1_dropShadow_4618_36696"/>
<feColorMatrix in="SourceAlpha" type="matrix" values="0 0 0 0 0 0 0 0 0 0 0 0 0 0 0 0 0 0 127 0" result="hardAlpha"/>
<feMorphology radius="1" operator="dilate" in="SourceAlpha" result="effect2_dropShadow_4618_36696"/>
<feOffset dy="2"/>
<feGaussianBlur stdDeviation="2.5"/>
<feColorMatrix type="matrix" values="0 0 0 0 0.196078 0 0 0 0 0.278431 0 0 0 0 0.360784 0 0 0 0.04 0"/>
<feBlend mode="normal" in2="effect1_dropShadow_4618_36696" result="effect2_dropShadow_4618_36696"/>
<feColorMatrix in="SourceAlpha" type="matrix" values="0 0 0 0 0 0 0 0 0 0 0 0 0 0 0 0 0 0 127 0" result="hardAlpha"/>
<feMorphology radius="2" operator="dilate" in="SourceAlpha" result="effect3_dropShadow_4618_36696"/>
<feOffset dy="1"/>
<feGaussianBlur stdDeviation="1.5"/>
<feColorMatrix type="matrix" values="0 0 0 0 0.196078 0 0 0 0 0.278431 0 0 0 0 0.360784 0 0 0 0.06 0"/>
<feBlend mode="normal" in2="effect2_dropShadow_4618_36696" result="effect3_dropShadow_4618_36696"/>
<feBlend mode="normal" in="SourceGraphic" in2="effect3_dropShadow_4618_36696" result="shape"/>
</filter>
<filter id="filter1_d_4618_36696" x="5.78223" y="4" width="660.218" height="588" filterUnits="userSpaceOnUse" color-interpolation-filters="sRGB">
<feFlood flood-opacity="0" result="BackgroundImageFix"/>
<feColorMatrix in="SourceAlpha" type="matrix" values="0 0 0 0 0 0 0 0 0 0 0 0 0 0 0 0 0 0 127 0" result="hardAlpha"/>
<feOffset dx="4" dy="4"/>
<feGaussianBlur stdDeviation="2"/>
<feComposite in2="hardAlpha" operator="out"/>
<feColorMatrix type="matrix" values="0 0 0 0 0.301961 0 0 0 0 0.372549 0 0 0 0 0.443137 0 0 0 0.12 0"/>
<feBlend mode="normal" in2="BackgroundImageFix" result="effect1_dropShadow_4618_36696"/>
<feBlend mode="normal" in="SourceGraphic" in2="effect1_dropShadow_4618_36696" result="shape"/>
</filter>
<filter id="filter2_dii_4618_36696" x="296.5" y="71" width="70" height="58" filterUnits="userSpaceOnUse" color-interpolation-filters="sRGB">
<feFlood flood-opacity="0" result="BackgroundImageFix"/>
<feColorMatrix in="SourceAlpha" type="matrix" values="0 0 0 0 0 0 0 0 0 0 0 0 0 0 0 0 0 0 127 0" result="hardAlpha"/>
<feOffset dy="4"/>
<feGaussianBlur stdDeviation="2"/>
<feComposite in2="hardAlpha" operator="out"/>
<feColorMatrix type="matrix" values="0 0 0 0 0 0 0 0 0 0 0 0 0 0 0 0 0 0 0.02 0"/>
<feBlend mode="normal" in2="BackgroundImageFix" result="effect1_dropShadow_4618_36696"/>
<feBlend mode="normal" in="SourceGraphic" in2="effect1_dropShadow_4618_36696" result="shape"/>
<feColorMatrix in="SourceAlpha" type="matrix" values="0 0 0 0 0 0 0 0 0 0 0 0 0 0 0 0 0 0 127 0" result="hardAlpha"/>
<feOffset dy="1"/>
<feGaussianBlur stdDeviation="2"/>
<feComposite in2="hardAlpha" operator="arithmetic" k2="-1" k3="1"/>
<feColorMatrix type="matrix" values="0 0 0 0 0 0 0 0 0 0 0 0 0 0 0 0 0 0 0.15 0"/>
<feBlend mode="normal" in2="shape" result="effect2_innerShadow_4618_36696"/>
<feColorMatrix in="SourceAlpha" type="matrix" values="0 0 0 0 0 0 0 0 0 0 0 0 0 0 0 0 0 0 127 0" result="hardAlpha"/>
<feOffset dy="-1"/>
<feGaussianBlur stdDeviation="2"/>
<feComposite in2="hardAlpha" operator="arithmetic" k2="-1" k3="1"/>
<feColorMatrix type="matrix" values="0 0 0 0 0 0 0 0 0 0 0 0 0 0 0 0 0 0 0.1 0"/>
<feBlend mode="normal" in2="effect2_innerShadow_4618_36696" result="effect3_innerShadow_4618_36696"/>
</filter>
<filter id="filter3_ii_4618_36696" x="312.5" y="86" width="38" height="21" filterUnits="userSpaceOnUse" color-interpolation-filters="sRGB">
<feFlood flood-opacity="0" result="BackgroundImageFix"/>
<feBlend mode="normal" in="SourceGraphic" in2="BackgroundImageFix" result="shape"/>
<feColorMatrix in="SourceAlpha" type="matrix" values="0 0 0 0 0 0 0 0 0 0 0 0 0 0 0 0 0 0 127 0" result="hardAlpha"/>
<feOffset dx="-1" dy="1"/>
<feComposite in2="hardAlpha" operator="arithmetic" k2="-1" k3="1"/>
<feColorMatrix type="matrix" values="0 0 0 0 0.045 0 0 0 0 0.45 0 0 0 0 0.236981 0 0 0 1 0"/>
<feBlend mode="normal" in2="shape" result="effect1_innerShadow_4618_36696"/>
<feColorMatrix in="SourceAlpha" type="matrix" values="0 0 0 0 0 0 0 0 0 0 0 0 0 0 0 0 0 0 127 0" result="hardAlpha"/>
<feOffset dx="1" dy="-1"/>
<feComposite in2="hardAlpha" operator="arithmetic" k2="-1" k3="1"/>
<feColorMatrix type="matrix" values="0 0 0 0 0.106215 0 0 0 0 0.670833 0 0 0 0 0.373859 0 0 0 1 0"/>
<feBlend mode="normal" in2="effect1_innerShadow_4618_36696" result="effect2_innerShadow_4618_36696"/>
</filter>
<filter id="filter4_ii_4618_36696" x="316.5" y="88.5" width="6" height="16" filterUnits="userSpaceOnUse" color-interpolation-filters="sRGB">
<feFlood flood-opacity="0" result="BackgroundImageFix"/>
<feBlend mode="normal" in="SourceGraphic" in2="BackgroundImageFix" result="shape"/>
<feColorMatrix in="SourceAlpha" type="matrix" values="0 0 0 0 0 0 0 0 0 0 0 0 0 0 0 0 0 0 127 0" result="hardAlpha"/>
<feOffset dx="-1" dy="1"/>
<feComposite in2="hardAlpha" operator="arithmetic" k2="-1" k3="1"/>
<feColorMatrix type="matrix" values="0 0 0 0 0.045 0 0 0 0 0.45 0 0 0 0 0.236981 0 0 0 1 0"/>
<feBlend mode="normal" in2="shape" result="effect1_innerShadow_4618_36696"/>
<feColorMatrix in="SourceAlpha" type="matrix" values="0 0 0 0 0 0 0 0 0 0 0 0 0 0 0 0 0 0 127 0" result="hardAlpha"/>
<feOffset dx="1" dy="-1"/>
<feComposite in2="hardAlpha" operator="arithmetic" k2="-1" k3="1"/>
<feColorMatrix type="matrix" values="0 0 0 0 0.106215 0 0 0 0 0.670833 0 0 0 0 0.373859 0 0 0 1 0"/>
<feBlend mode="normal" in2="effect1_innerShadow_4618_36696" result="effect2_innerShadow_4618_36696"/>
</filter>
<filter id="filter5_ii_4618_36696" x="324.5" y="88.5" width="6" height="16" filterUnits="userSpaceOnUse" color-interpolation-filters="sRGB">
<feFlood flood-opacity="0" result="BackgroundImageFix"/>
<feBlend mode="normal" in="SourceGraphic" in2="BackgroundImageFix" result="shape"/>
<feColorMatrix in="SourceAlpha" type="matrix" values="0 0 0 0 0 0 0 0 0 0 0 0 0 0 0 0 0 0 127 0" result="hardAlpha"/>
<feOffset dx="-1" dy="1"/>
<feComposite in2="hardAlpha" operator="arithmetic" k2="-1" k3="1"/>
<feColorMatrix type="matrix" values="0 0 0 0 0.045 0 0 0 0 0.45 0 0 0 0 0.236981 0 0 0 1 0"/>
<feBlend mode="normal" in2="shape" result="effect1_innerShadow_4618_36696"/>
<feColorMatrix in="SourceAlpha" type="matrix" values="0 0 0 0 0 0 0 0 0 0 0 0 0 0 0 0 0 0 127 0" result="hardAlpha"/>
<feOffset dx="1" dy="-1"/>
<feComposite in2="hardAlpha" operator="arithmetic" k2="-1" k3="1"/>
<feColorMatrix type="matrix" values="0 0 0 0 0.106215 0 0 0 0 0.670833 0 0 0 0 0.373859 0 0 0 1 0"/>
<feBlend mode="normal" in2="effect1_innerShadow_4618_36696" result="effect2_innerShadow_4618_36696"/>
</filter>
<filter id="filter6_ii_4618_36696" x="332.5" y="88.5" width="6" height="16" filterUnits="userSpaceOnUse" color-interpolation-filters="sRGB">
<feFlood flood-opacity="0" result="BackgroundImageFix"/>
<feBlend mode="normal" in="SourceGraphic" in2="BackgroundImageFix" result="shape"/>
<feColorMatrix in="SourceAlpha" type="matrix" values="0 0 0 0 0 0 0 0 0 0 0 0 0 0 0 0 0 0 127 0" result="hardAlpha"/>
<feOffset dx="-1" dy="1"/>
<feComposite in2="hardAlpha" operator="arithmetic" k2="-1" k3="1"/>
<feColorMatrix type="matrix" values="0 0 0 0 0.045 0 0 0 0 0.45 0 0 0 0 0.236981 0 0 0 1 0"/>
<feBlend mode="normal" in2="shape" result="effect1_innerShadow_4618_36696"/>
<feColorMatrix in="SourceAlpha" type="matrix" values="0 0 0 0 0 0 0 0 0 0 0 0 0 0 0 0 0 0 127 0" result="hardAlpha"/>
<feOffset dx="1" dy="-1"/>
<feComposite in2="hardAlpha" operator="arithmetic" k2="-1" k3="1"/>
<feColorMatrix type="matrix" values="0 0 0 0 0.106215 0 0 0 0 0.670833 0 0 0 0 0.373859 0 0 0 1 0"/>
<feBlend mode="normal" in2="effect1_innerShadow_4618_36696" result="effect2_innerShadow_4618_36696"/>
</filter>
<filter id="filter7_ii_4618_36696" x="340.5" y="88.5" width="6" height="16" filterUnits="userSpaceOnUse" color-interpolation-filters="sRGB">
<feFlood flood-opacity="0" result="BackgroundImageFix"/>
<feBlend mode="normal" in="SourceGraphic" in2="BackgroundImageFix" result="shape"/>
<feColorMatrix in="SourceAlpha" type="matrix" values="0 0 0 0 0 0 0 0 0 0 0 0 0 0 0 0 0 0 127 0" result="hardAlpha"/>
<feOffset dx="-1" dy="1"/>
<feComposite in2="hardAlpha" operator="arithmetic" k2="-1" k3="1"/>
<feColorMatrix type="matrix" values="0 0 0 0 0.045 0 0 0 0 0.45 0 0 0 0 0.236981 0 0 0 1 0"/>
<feBlend mode="normal" in2="shape" result="effect1_innerShadow_4618_36696"/>
<feColorMatrix in="SourceAlpha" type="matrix" values="0 0 0 0 0 0 0 0 0 0 0 0 0 0 0 0 0 0 127 0" result="hardAlpha"/>
<feOffset dx="1" dy="-1"/>
<feComposite in2="hardAlpha" operator="arithmetic" k2="-1" k3="1"/>
<feColorMatrix type="matrix" values="0 0 0 0 0.106215 0 0 0 0 0.670833 0 0 0 0 0.373859 0 0 0 1 0"/>
<feBlend mode="normal" in2="effect1_innerShadow_4618_36696" result="effect2_innerShadow_4618_36696"/>
</filter>
<clipPath id="clip0_4618_36696">
<rect x="6" y="3" width="652" height="582" rx="12" fill="white"/>
</clipPath>
</defs>
</svg>
