<svg width="43" height="44" viewBox="0 0 43 44" fill="none" xmlns="http://www.w3.org/2000/svg">
<path d="M15.5 22L19.5 26L28.5 17M33.3024 7.99701C33.7142 8.99306 34.5047 9.7848 35.5001 10.1981L38.9905 11.644C39.9866 12.0566 40.778 12.848 41.1906 13.8441C41.6032 14.8402 41.6032 15.9595 41.1906 16.9556L39.7458 20.4436C39.3331 21.4402 39.3325 22.5606 39.7471 23.5566L41.1894 27.0436C41.3939 27.537 41.4992 28.0658 41.4993 28.5999C41.4994 29.134 41.3942 29.6629 41.1899 30.1563C40.9855 30.6497 40.6859 31.0981 40.3082 31.4757C39.9305 31.8533 39.482 32.1527 38.9886 32.357L35.5007 33.8017C34.5047 34.2136 33.713 35.0041 33.2997 35.9995L31.8539 39.49C31.4413 40.4862 30.6499 41.2776 29.6538 41.6902C28.6577 42.1028 27.5385 42.1028 26.5424 41.6902L23.0546 40.2454C22.0584 39.8338 20.9397 39.8347 19.9442 40.2478L16.4538 41.6915C15.4582 42.1032 14.34 42.1028 13.3447 41.6905C12.3495 41.2783 11.5585 40.4878 11.1456 39.4927L9.69944 36.0012C9.2876 35.0051 8.49709 34.2134 7.50169 33.8001L4.01133 32.3542C3.01567 31.9418 2.22451 31.1509 1.81176 30.1553C1.39902 29.1598 1.39846 28.0411 1.81021 27.0451L3.25493 23.5571C3.66651 22.5609 3.66567 21.4421 3.25259 20.4466L1.80994 16.9536C1.60541 16.4602 1.50009 15.9314 1.5 15.3973C1.49991 14.8632 1.60507 14.3343 1.80945 13.8409C2.01383 13.3474 2.31343 12.8991 2.69114 12.5215C3.06884 12.1439 3.51725 11.8444 4.01073 11.6402L7.49859 10.1954C8.49374 9.78394 9.28497 8.9944 9.69861 8.00011L11.1444 4.50962C11.557 3.51349 12.3484 2.72207 13.3444 2.30946C14.3405 1.89685 15.4597 1.89685 16.4558 2.30946L19.9437 3.75423C20.9398 4.16583 22.0586 4.16498 23.0541 3.75189L26.5459 2.3117C27.5419 1.89932 28.6609 1.8994 29.6568 2.31193C30.6527 2.72446 31.4439 3.51566 31.8566 4.51153L33.3028 8.00306L33.3024 7.99701Z" stroke="#00802F" stroke-width="3" stroke-linecap="round" stroke-linejoin="round"/>
</svg>
