<svg width="20" height="20" viewBox="0 0 20 20" fill="none" xmlns="http://www.w3.org/2000/svg">
<path d="M12.4989 15.8332C12.4989 17.2139 11.3796 18.3332 9.99891 18.3332C8.6182 18.3332 7.49891 17.2139 7.49891 15.8332M11.496 5.19864C11.8589 4.82371 12.0822 4.31285 12.0822 3.74984C12.0822 2.59924 11.1495 1.6665 9.99891 1.6665C8.84832 1.6665 7.91558 2.59924 7.91558 3.74984C7.91558 4.31285 8.13891 4.82371 8.50183 5.19864M14.9989 9.33317C14.9989 8.1839 14.4721 7.0817 13.5344 6.26904C12.5968 5.45638 11.325 4.99984 9.99891 4.99984C8.67283 4.99984 7.40106 5.45638 6.46338 6.26904C5.5257 7.0817 4.99891 8.1839 4.99891 9.33317C4.99891 11.2347 4.52736 12.6253 3.93897 13.6204C3.26836 14.7545 2.93306 15.3216 2.9463 15.457C2.96145 15.612 2.98934 15.6609 3.11503 15.7528C3.22489 15.8332 3.77684 15.8332 4.88074 15.8332H15.1171C16.221 15.8332 16.7729 15.8332 16.8828 15.7528C17.0085 15.6609 17.0364 15.612 17.0515 15.457C17.0648 15.3216 16.7295 14.7545 16.0589 13.6204C15.4705 12.6253 14.9989 11.2347 14.9989 9.33317Z" stroke="#1B1B1B" stroke-width="1.4" stroke-linecap="round" stroke-linejoin="round"/>
</svg>
