<svg width="20" height="20" viewBox="0 0 20 20" fill="none" xmlns="http://www.w3.org/2000/svg">
<path d="M18.3333 8.33317H1.66663M9.16663 11.6665H4.99996M1.66663 6.83317L1.66663 13.1665C1.66663 14.0999 1.66663 14.5666 1.84828 14.9232C2.00807 15.2368 2.26304 15.4917 2.57664 15.6515C2.93316 15.8332 3.39987 15.8332 4.33329 15.8332L15.6666 15.8332C16.6 15.8332 17.0668 15.8332 17.4233 15.6515C17.7369 15.4917 17.9919 15.2368 18.1516 14.9232C18.3333 14.5666 18.3333 14.0999 18.3333 13.1665V6.83317C18.3333 5.89975 18.3333 5.43304 18.1516 5.07652C17.9919 4.76292 17.7369 4.50795 17.4233 4.34816C17.0668 4.16651 16.6 4.16651 15.6666 4.1665L4.33329 4.1665C3.39987 4.1665 2.93316 4.1665 2.57664 4.34816C2.26304 4.50795 2.00807 4.76292 1.84828 5.07652C1.66663 5.43304 1.66663 5.89975 1.66663 6.83317Z" stroke="#1B1B1B" stroke-width="1.4" stroke-linecap="round" stroke-linejoin="round"/>
</svg>
