<svg width="20" height="20" viewBox="0 0 20 20" fill="none" xmlns="http://www.w3.org/2000/svg">
<path d="M17.0833 6.66667V13.5C17.0833 14.9001 17.0833 15.6002 16.8108 16.135C16.5711 16.6054 16.1887 16.9878 15.7183 17.2275C15.1835 17.5 14.4834 17.5 13.0833 17.5H6.91663C5.51649 17.5 4.81643 17.5 4.28165 17.2275C3.81124 16.9878 3.42879 16.6054 3.18911 16.135C2.91663 15.6002 2.91663 14.9001 2.91663 13.5V6.66667M2.99996 2.5H17C17.4667 2.5 17.7 2.5 17.8783 2.59083C18.0351 2.67072 18.1626 2.79821 18.2425 2.95501C18.3333 3.13327 18.3333 3.36662 18.3333 3.83333V5.33333C18.3333 5.80004 18.3333 6.0334 18.2425 6.21166C18.1626 6.36846 18.0351 6.49594 17.8783 6.57584C17.7 6.66667 17.4667 6.66667 17 6.66667H2.99996C2.53325 6.66667 2.29989 6.66667 2.12163 6.57584C1.96483 6.49594 1.83735 6.36846 1.75745 6.21166C1.66663 6.0334 1.66663 5.80004 1.66663 5.33333V3.83333C1.66663 3.36662 1.66663 3.13327 1.75745 2.95501C1.83735 2.79821 1.96483 2.67072 2.12163 2.59083C2.29989 2.5 2.53325 2.5 2.99996 2.5ZM7.99996 9.58333H12C12.4667 9.58333 12.7 9.58333 12.8783 9.67416C13.0351 9.75406 13.1626 9.88154 13.2425 10.0383C13.3333 10.2166 13.3333 10.45 13.3333 10.9167V11.5833C13.3333 12.05 13.3333 12.2834 13.2425 12.4617C13.1626 12.6185 13.0351 12.7459 12.8783 12.8258C12.7 12.9167 12.4667 12.9167 12 12.9167H7.99996C7.53325 12.9167 7.29989 12.9167 7.12163 12.8258C6.96483 12.7459 6.83735 12.6185 6.75745 12.4617C6.66663 12.2834 6.66663 12.05 6.66663 11.5833V10.9167C6.66663 10.45 6.66663 10.2166 6.75745 10.0383C6.83735 9.88154 6.96483 9.75406 7.12163 9.67416C7.29989 9.58333 7.53325 9.58333 7.99996 9.58333Z" stroke="#1B1B1B" stroke-width="1.4" stroke-linecap="round" stroke-linejoin="round"/>
</svg>
