<svg width="48" height="48" viewBox="0 0 48 48" fill="none" xmlns="http://www.w3.org/2000/svg">
<rect x="0.5" y="0.5" width="47" height="47" rx="11.5" fill="white"/>
<rect x="0.5" y="0.5" width="47" height="47" rx="11.5" stroke="#D0D0D0"/>
<path d="M26.9997 31C26.9997 32.6569 25.6566 34 23.9997 34C22.3429 34 20.9997 32.6569 20.9997 31M25.7962 18.2386C26.2317 17.7886 26.4997 17.1756 26.4997 16.5C26.4997 15.1193 25.3804 14 23.9997 14C22.619 14 21.4997 15.1193 21.4997 16.5C21.4997 17.1756 21.7677 17.7886 22.2032 18.2386M29.9997 23.2C29.9997 21.8209 29.3676 20.4982 28.2424 19.523C27.1171 18.5479 25.591 18 23.9997 18C22.4084 18 20.8823 18.5479 19.7571 19.523C18.6319 20.4982 17.9997 21.8209 17.9997 23.2C17.9997 25.4818 17.4339 27.1506 16.7278 28.3447C15.9231 29.7056 15.5207 30.3861 15.5366 30.5486C15.5548 30.7346 15.5882 30.7933 15.7391 30.9036C15.8709 31 16.5332 31 17.8579 31H30.1415C31.4662 31 32.1286 31 32.2604 30.9036C32.4112 30.7933 32.4447 30.7346 32.4629 30.5486C32.4787 30.3861 32.0764 29.7056 31.2717 28.3447C30.5656 27.1506 29.9997 25.4818 29.9997 23.2Z" stroke="#2A2A2A" stroke-width="1.4" stroke-linecap="round" stroke-linejoin="round"/>
<circle cx="30" cy="18" r="3.5" fill="#FF000D" stroke="white"/>
</svg>
