<svg width="33" height="26" viewBox="0 0 33 26" fill="none" xmlns="http://www.w3.org/2000/svg">
<path d="M28.3717 2.4186C28.1918 2.16196 27.8871 2.04634 27.5888 2.09064C27.5775 2.08794 27.5661 2.08308 27.5548 2.08146L15.3414 0.288764C15.208 0.268773 15.0718 0.283361 14.9448 0.329826L5.16283 3.91522C5.1585 3.91684 5.15472 3.91954 5.1504 3.92116C5.14013 3.92548 5.13041 3.93197 5.1196 3.93575C5.06611 3.95952 5.01641 3.98762 4.97048 4.02058C4.95643 4.03084 4.94293 4.04111 4.92888 4.05245C4.87863 4.09352 4.83271 4.13836 4.79434 4.18969C4.79218 4.19293 4.78894 4.19455 4.78678 4.19779L0.656233 9.84819C0.497926 10.0648 0.456864 10.3469 0.547093 10.5997C0.637322 10.8531 0.847497 11.0444 1.10792 11.1114L4.69223 12.0369V20.8983C4.69223 21.2543 4.9251 21.5693 5.26602 21.6736L18.3898 25.6837C18.3941 25.6858 18.399 25.6842 18.4033 25.6864C18.4735 25.7058 18.547 25.7182 18.6205 25.7188C18.6221 25.7188 18.6243 25.7199 18.6264 25.7199C18.7037 25.7199 18.7799 25.7058 18.8555 25.6837C18.8793 25.6761 18.9014 25.6658 18.9257 25.6556C18.9576 25.6437 18.989 25.635 19.0203 25.6188L28.4376 20.3926C28.6953 20.2494 28.8547 19.9782 28.8547 19.6837V10.824L32.0403 9.29493C32.2548 9.19227 32.4131 8.99939 32.4736 8.76922C32.5336 8.53852 32.4898 8.29376 32.3531 8.09872L28.3717 2.4186ZM15.3095 1.92261L24.8425 3.32198L18.5189 6.26226L8.50508 4.41715L15.3095 1.92261ZM5.79551 5.56582L17.2697 7.68053L13.8972 12.7398L2.66991 9.84116L5.79551 5.56582ZM6.31311 20.2986V12.4551L14.049 14.4526C14.1166 14.4693 14.1841 14.4785 14.2517 14.4785C14.518 14.4785 14.773 14.3467 14.9259 14.1176L17.816 9.78281V23.8132L6.31311 20.2986ZM27.2333 19.2061L19.4363 23.5322V10.731L20.86 13.7561C20.9524 13.9512 21.1188 14.1025 21.3214 14.1738C21.4095 14.2062 21.5013 14.2208 21.5926 14.2208C21.7131 14.2208 21.8325 14.1938 21.9433 14.1419L27.2322 11.6036L27.2333 19.2061ZM21.9795 12.3271L19.7065 7.49791L27.4338 3.90495L30.4778 8.2473L21.9795 12.3271Z" fill="#717171"/>
</svg>
