<svg width="32" height="32" viewBox="0 0 32 32" fill="none" xmlns="http://www.w3.org/2000/svg">
<rect x="0.5" y="0.5" width="31" height="31" rx="3.5" fill="#F4F6F9"/>
<rect x="0.5" y="0.5" width="31" height="31" rx="3.5" stroke="#DEDEDE"/>
<path d="M19.5001 20.5H20.0053C20.4908 20.5 20.7336 20.5 20.8675 20.3988C20.9841 20.3106 21.0562 20.1757 21.0649 20.0298C21.0749 19.8623 20.9402 19.6603 20.6709 19.2562L19.1657 16.9985C18.9431 16.6646 18.8319 16.4977 18.6916 16.4395C18.569 16.3887 18.4312 16.3887 18.3085 16.4395C18.1683 16.4977 18.057 16.6646 17.8344 16.9985L17.4623 17.5566M19.5001 20.5L15.6578 14.9501C15.4369 14.6309 15.3264 14.4713 15.1884 14.4152C15.0676 14.3661 14.9325 14.3661 14.8118 14.4152C14.6738 14.4713 14.5633 14.6309 14.3423 14.9501L11.3692 19.2446C11.0877 19.6513 10.9469 19.8546 10.9549 20.0237C10.9619 20.1709 11.0335 20.3076 11.1506 20.3972C11.2851 20.5 11.5324 20.5 12.0269 20.5H19.5001ZM20.5001 13C20.5001 13.8284 19.8285 14.5 19.0001 14.5C18.1716 14.5 17.5001 13.8284 17.5001 13C17.5001 12.1716 18.1716 11.5 19.0001 11.5C19.8285 11.5 20.5001 12.1716 20.5001 13Z" stroke="#B8B8B8" stroke-linecap="round" stroke-linejoin="round"/>
</svg>
