<svg width="29" height="30" viewBox="0 0 29 30" fill="none" xmlns="http://www.w3.org/2000/svg">
<path d="M22.5003 8.33341V5.93341C22.5003 4.43994 22.5003 3.6932 22.2097 3.12277C21.954 2.62101 21.5461 2.21306 21.0443 1.9574C20.4739 1.66675 19.7271 1.66675 18.2337 1.66675H10.767C9.27352 1.66675 8.52678 1.66675 7.95635 1.9574C7.45459 2.21306 7.04664 2.62101 6.79098 3.12277C6.50033 3.6932 6.50033 4.43994 6.50033 5.93341V8.33341M6.50033 23.0001C5.26036 23.0001 4.64038 23.0001 4.13172 22.8638C2.75135 22.4939 1.67316 21.4157 1.30329 20.0354C1.16699 19.5267 1.16699 18.9067 1.16699 17.6667V14.7334C1.16699 12.4932 1.16699 11.3731 1.60297 10.5175C1.98646 9.7648 2.59838 9.15288 3.35103 8.76939C4.20668 8.33342 5.32678 8.33341 7.56699 8.33341H21.4337C23.6739 8.33341 24.794 8.33342 25.6496 8.76939C26.4023 9.15288 27.0142 9.7648 27.3977 10.5175C27.8337 11.3731 27.8337 12.4932 27.8337 14.7334V17.6667C27.8337 18.9067 27.8337 19.5267 27.6974 20.0354C27.3275 21.4157 26.2493 22.4939 24.8689 22.8638C24.3603 23.0001 23.7403 23.0001 22.5003 23.0001M18.5003 13.0001H22.5003M10.767 28.3334H18.2337C19.7271 28.3334 20.4739 28.3334 21.0443 28.0428C21.5461 27.7871 21.954 27.3792 22.2097 26.8774C22.5003 26.307 22.5003 25.5602 22.5003 24.0668V21.9334C22.5003 20.4399 22.5003 19.6932 22.2097 19.1228C21.954 18.621 21.5461 18.2131 21.0443 17.9574C20.4739 17.6667 19.7271 17.6667 18.2337 17.6667H10.767C9.27352 17.6667 8.52678 17.6667 7.95635 17.9574C7.45459 18.2131 7.04664 18.621 6.79098 19.1228C6.50033 19.6932 6.50033 20.4399 6.50033 21.9334V24.0667C6.50033 25.5602 6.50033 26.307 6.79098 26.8774C7.04664 27.3792 7.45459 27.7871 7.95635 28.0428C8.52678 28.3334 9.27352 28.3334 10.767 28.3334Z" stroke="#00802F" stroke-width="1.4" stroke-linecap="round" stroke-linejoin="round"/>
</svg>
