<svg width="56" height="56" viewBox="0 0 56 56" fill="none" xmlns="http://www.w3.org/2000/svg">
<rect x="4" y="4" width="48" height="48" rx="24" fill="#CCEBDB"/>
<rect x="4" y="4" width="48" height="48" rx="24" stroke="#E5F5ED" stroke-width="8"/>
<path d="M36.5 23.6895V31.8895C36.5 33.5696 36.5 34.4097 36.173 35.0514C35.8854 35.6159 35.4265 36.0749 34.862 36.3625C34.2202 36.6895 33.3802 36.6895 31.7 36.6895H24.3C22.6198 36.6895 21.7798 36.6895 21.138 36.3625C20.5735 36.0749 20.1146 35.6159 19.827 35.0514C19.5 34.4097 19.5 33.5696 19.5 31.8895V23.6895M19.6 18.6895H36.4C36.9601 18.6895 37.2401 18.6895 37.454 18.7984C37.6422 18.8943 37.7951 19.0473 37.891 19.2355C38 19.4494 38 19.7294 38 20.2895V22.0895C38 22.6495 38 22.9295 37.891 23.1434C37.7951 23.3316 37.6422 23.4846 37.454 23.5805C37.2401 23.6895 36.9601 23.6895 36.4 23.6895H19.6C19.0399 23.6895 18.7599 23.6895 18.546 23.5805C18.3578 23.4846 18.2049 23.3316 18.109 23.1434C18 22.9295 18 22.6495 18 22.0895V20.2895C18 19.7294 18 19.4494 18.109 19.2355C18.2049 19.0473 18.3578 18.8943 18.546 18.7984C18.7599 18.6895 19.0399 18.6895 19.6 18.6895ZM25.6 27.1895H30.4C30.9601 27.1895 31.2401 27.1895 31.454 27.2984C31.6422 27.3943 31.7951 27.5473 31.891 27.7355C32 27.9494 32 28.2294 32 28.7895V29.5895C32 30.1495 32 30.4295 31.891 30.6434C31.7951 30.8316 31.6422 30.9846 31.454 31.0805C31.2401 31.1895 30.9601 31.1895 30.4 31.1895H25.6C25.0399 31.1895 24.7599 31.1895 24.546 31.0805C24.3578 30.9846 24.2049 30.8316 24.109 30.6434C24 30.4295 24 30.1495 24 29.5895V28.7895C24 28.2294 24 27.9494 24.109 27.7355C24.2049 27.5473 24.3578 27.3943 24.546 27.2984C24.7599 27.1895 25.0399 27.1895 25.6 27.1895Z" stroke="#009A49" stroke-width="2" stroke-linecap="round" stroke-linejoin="round"/>
</svg>
