<svg width="56" height="56" viewBox="0 0 56 56" fill="none" xmlns="http://www.w3.org/2000/svg">
<rect x="4" y="4" width="48" height="48" rx="24" fill="#CCEBDB"/>
<rect x="4" y="4" width="48" height="48" rx="24" stroke="#E5F5ED" stroke-width="8"/>
<path d="M25 27.6895H20.6C20.0399 27.6895 19.7599 27.6895 19.546 27.7984C19.3578 27.8943 19.2049 28.0473 19.109 28.2355C19 28.4494 19 28.7294 19 29.2895V35.0895C19 35.6495 19 35.9295 19.109 36.1434C19.2049 36.3316 19.3578 36.4846 19.546 36.5805C19.7599 36.6895 20.0399 36.6895 20.6 36.6895H25M25 36.6895H31M25 36.6895L25 24.2895C25 23.7294 25 23.4494 25.109 23.2355C25.2049 23.0473 25.3578 22.8943 25.546 22.7984C25.7599 22.6895 26.0399 22.6895 26.6 22.6895H29.4C29.9601 22.6895 30.2401 22.6895 30.454 22.7984C30.6422 22.8943 30.7951 23.0473 30.891 23.2355C31 23.4494 31 23.7294 31 24.2895V36.6895M31 36.6895H35.4C35.9601 36.6895 36.2401 36.6895 36.454 36.5805C36.6422 36.4846 36.7951 36.3316 36.891 36.1434C37 35.9295 37 35.6495 37 35.0895V20.2895C37 19.7294 37 19.4494 36.891 19.2355C36.7951 19.0473 36.6422 18.8943 36.454 18.7984C36.2401 18.6895 35.9601 18.6895 35.4 18.6895H32.6C32.0399 18.6895 31.7599 18.6895 31.546 18.7984C31.3578 18.8943 31.2049 19.0473 31.109 19.2355C31 19.4494 31 19.7294 31 20.2895V23.6895" stroke="#009A49" stroke-width="2" stroke-linecap="round" stroke-linejoin="round"/>
</svg>
