<svg width="56" height="56" viewBox="0 0 56 56" fill="none" xmlns="http://www.w3.org/2000/svg">
<rect x="4" y="4" width="48" height="48" rx="24" fill="#CCEBDB"/>
<rect x="4" y="4" width="48" height="48" rx="24" stroke="#E5F5ED" stroke-width="8"/>
<path d="M22 26.6895V30.6895M34 24.6895V28.6895M33 19.6895C35.4487 19.6895 36.7731 20.0642 37.4321 20.3549C37.5199 20.3936 37.5638 20.413 37.6904 20.5338C37.7663 20.6063 37.9049 20.8188 37.9405 20.9175C38 21.0822 38 21.1722 38 21.3522V32.1006C38 33.0094 38 33.4637 37.8637 33.6973C37.7251 33.9349 37.5914 34.0453 37.3319 34.1366C37.0769 34.2264 36.562 34.1275 35.5322 33.9296C34.8114 33.7911 33.9565 33.6895 33 33.6895C30 33.6895 27 35.6895 23 35.6895C20.5513 35.6895 19.2269 35.3147 18.5679 35.024C18.4801 34.9853 18.4362 34.9659 18.3096 34.8451C18.2337 34.7726 18.0951 34.5601 18.0595 34.4614C18 34.2967 18 34.2067 18 34.0267L18 23.2783C18 22.3695 18 21.9152 18.1363 21.6816C18.2749 21.444 18.4086 21.3336 18.6681 21.2423C18.9231 21.1525 19.438 21.2514 20.4678 21.4493C21.1886 21.5878 22.0435 21.6895 23 21.6895C26 21.6895 29 19.6895 33 19.6895ZM30.5 27.6895C30.5 29.0702 29.3807 30.1895 28 30.1895C26.6193 30.1895 25.5 29.0702 25.5 27.6895C25.5 26.3087 26.6193 25.1895 28 25.1895C29.3807 25.1895 30.5 26.3087 30.5 27.6895Z" stroke="#009A49" stroke-width="2" stroke-linecap="round" stroke-linejoin="round"/>
</svg>
