<svg width="64" height="65" viewBox="0 0 64 65" fill="none" xmlns="http://www.w3.org/2000/svg">
<rect x="0.00732422" y="0.496338" width="64" height="64" rx="32" fill="#EDEDED"/>
<path d="M23.9393 33.2232C23.9391 35.2392 24.3069 36.7193 25.0428 37.6634C25.6187 38.4314 26.4187 38.8155 27.4427 38.8157C28.4347 38.8158 29.2347 38.4319 29.8428 37.6639C30.5629 36.736 30.9231 35.2561 30.9233 33.2241C30.9235 31.1921 30.5637 29.712 29.8438 28.7839C29.2359 28.0159 28.436 27.6318 27.444 27.6317C26.42 27.6315 25.6199 28.0154 25.0438 28.7834C24.3077 29.6953 23.9396 31.1752 23.9393 33.2232ZM22.4747 38.8151C21.5468 37.423 21.083 35.5589 21.0833 33.2229C21.0836 30.8869 21.5478 29.023 22.476 27.6311C23.6122 25.9352 25.2683 25.0874 27.4443 25.0877C29.6043 25.0879 31.2522 25.9361 32.388 27.6322C33.3158 29.0243 33.7796 30.8884 33.7793 33.2244C33.779 35.5604 33.3148 37.4243 32.3867 38.8162C31.2505 40.5121 29.6024 41.3599 27.4424 41.3597C25.2664 41.3594 23.6105 40.5112 22.4747 38.8151ZM41.9463 41.0014L39.1143 41.001L39.1155 30.345L35.3475 30.3446L35.3478 28.3766C36.4358 28.3607 37.3478 28.0808 38.0839 27.5369C38.8199 26.977 39.276 26.281 39.4521 25.4491L41.9481 25.4494L41.9463 41.0014Z" fill="#888888"/>
</svg>
